<?xml version="1.0" encoding="utf-8"?>
<!-- Generator: Adobe Illustrator 16.0.0, SVG Export Plug-In . SVG Version: 6.00 Build 0)  -->
<!DOCTYPE svg PUBLIC "-//W3C//DTD SVG 1.1//EN" "http://www.w3.org/Graphics/SVG/1.1/DTD/svg11.dtd">
<svg version="1.1" id="Layer_1" xmlns="http://www.w3.org/2000/svg" xmlns:xlink="http://www.w3.org/1999/xlink" x="0px" y="0px"
	 width="64px" height="64px" viewBox="0 0 64 64" enable-background="new 0 0 64 64" xml:space="preserve">
<g id="XMLID_1_">
</g>
<g id="imagebot_1">
	<path id="imagebot_6" fill="#40803C" stroke="#333333" stroke-width="2" stroke-linecap="round" stroke-linejoin="round" d="
		M1.85,27.672c2.247-1.05,6.169,0.422,8.924-0.609c5.002-1.874,11.157-8.669,13.417-10.352c4.059-3.02,7.804-4.292,10.108-8.295
		c1.182-2.053,2.713-7.05,5.139-9.262c0.541-0.494,1.807-0.955,2.568-0.853c1.909,0.255,3.02,1.423,4.191,2.803
		c1.009,1.185,1.723,2.652,1.623,4.144c-0.357,5.301-6.658,8.815-8.385,13.893c-0.635,1.871-1.809,4.262-0.541,5.851
		c1.607,2.006,8.957,1.584,12.98,3.413c2.527,1.148,5.503,2.345,6.762,4.631c1,1.817,0.861,4.217,0,6.094
		c-0.686,1.484-2.375,1.896-2.976,3.412c-0.608,1.538,0.495,3.394-0.271,4.875c-0.877,1.696-3.685,2.364-4.867,3.899
		c-0.851,1.1-0.403,2.138-1.354,3.168c-1.52,1.65-3.721,1.414-5.408,2.926c-1.061,0.945-1.822,2.558-2.975,3.413
		c-1.721,1.276-4.262,1.493-6.49,1.462c-2.623-0.039-4.146-1.021-6.76-1.219c-2.439-0.187-5.774,0.652-8.113,0
		c-5.799-1.621-8.588-7.383-13.792-10.726c-2.015-1.297-5.477,0.288-7.301-1.219c-3.24-2.679-3.305-7.288-2.705-11.212
		C-3.752,33.863-2.173,29.549,1.85,27.672L1.85,27.672z"/>
	<path id="imagebot_5" fill="#40803C" stroke="#333333" stroke-width="2" stroke-linecap="round" stroke-linejoin="round" d="
		M54.581,42.661c0,0-7.709,1.649-10.952,0.608c-4.193-1.345-6.419-3.115-10.682-4.996c-0.852-0.375-1.477-1.853-0.946-2.56
		c1.388-1.853,4.56-2.85,7.03-3.047c3.201-0.254,6.658,1.833,9.06,2.438c0.749,0.188,2.569-0.365,2.569-0.365"/>
	<path id="imagebot_4" fill="#40803C" stroke="#333333" stroke-width="2" stroke-linecap="round" stroke-linejoin="round" d="
		M49.713,50.827c0-0.086-6.428,0.274-10.275-0.854c-3.504-1.025-5.535-2.705-11.764-5.117c-2.628-1.02-0.932-1.982-0.541-2.805
		c0.835-1.74,4.868-4.021,4.868-4.021"/>
	<path id="imagebot_3" fill="#40803C" stroke="#333333" stroke-width="2" stroke-linecap="round" stroke-linejoin="round" d="
		M43.493,57.164c0,0-5.402-0.114-7.706-1.219c-3.491-1.672-7.643-3.135-11.087-4.754c-0.973-0.457-0.854-1.977-0.541-2.924
		c0.457-1.377,3.245-3.17,3.245-3.17"/>
	<path id="imagebot_2" fill="#40803C" stroke="#333333" stroke-width="2" stroke-linecap="round" stroke-linejoin="round" d="
		M34.127,62.161c0,0-9.241-2.683-11.861-4.875c-0.703-0.585-0.167-2.229,0.135-3.047c0.481-1.31,2.704-2.438,2.704-2.438"/>
	<title  stroke="#1c4d1d" fill="#3c9a50" stroke-linejoin="round" stroke-linecap="round" stroke-width="10"></title>
</g>
</svg>
