<?xml version="1.0" encoding="utf-8"?>
<!-- Generator: Adobe Illustrator 16.0.0, SVG Export Plug-In . SVG Version: 6.00 Build 0)  -->
<!DOCTYPE svg PUBLIC "-//W3C//DTD SVG 1.1//EN" "http://www.w3.org/Graphics/SVG/1.1/DTD/svg11.dtd">
<svg version="1.1" id="Layer_1" xmlns="http://www.w3.org/2000/svg" xmlns:xlink="http://www.w3.org/1999/xlink" x="0px" y="0px"
	 width="64px" height="64px" viewBox="0 0 64 64" enable-background="new 0 0 64 64" xml:space="preserve">
<g id="XMLID_1_">
	<g>
	</g>
	<g>
	</g>
</g>
<g>
	<defs>
		<polygon id="SVGID_2_" points="1,1 2,1 1,2 		"/>
	</defs>
	<defs>
		<polygon id="SVGID_3_" points="-1,-1 -2,-1 -1,-2 		"/>
	</defs>
	<clipPath id="SVGID_5_">
		<use xlink:href="#SVGID_2_"  overflow="visible"/>
	</clipPath>
	<clipPath id="SVGID_6_" clip-path="url(#SVGID_5_)">
		<use xlink:href="#SVGID_3_"  overflow="visible"/>
	</clipPath>
	<defs>
		<filter id="Adobe_OpacityMaskFilter" filterUnits="userSpaceOnUse" x="9.528" y="10.256" width="0" height="46.121">
			<feColorMatrix  type="matrix" values="1 0 0 0 0  0 1 0 0 0  0 0 1 0 0  0 0 0 1 0"/>
		</filter>
	</defs>
	<mask maskUnits="userSpaceOnUse" x="9.528" y="10.256" width="0" height="46.121" id="SVGID_1_">
		<g filter="url(#Adobe_OpacityMaskFilter)">
			
				<radialGradient id="SVGID_8_" cx="-458.0615" cy="-515.9277" r="0.1004" gradientTransform="matrix(221.2711 0 0 221.2711 101386.2422 114193.2656)" gradientUnits="userSpaceOnUse">
				<stop  offset="0" style="stop-color:#000000"/>
				<stop  offset="0.5744" style="stop-color:#000000"/>
				<stop  offset="0.6047" style="stop-color:#0F0F0F"/>
				<stop  offset="0.6629" style="stop-color:#373737"/>
				<stop  offset="0.7426" style="stop-color:#767676"/>
				<stop  offset="0.7977" style="stop-color:#A6A6A6"/>
				<stop  offset="0.8032" style="stop-color:#AAAAAA"/>
				<stop  offset="0.8564" style="stop-color:#C9C9C9"/>
				<stop  offset="0.9081" style="stop-color:#E0E0E0"/>
				<stop  offset="0.9569" style="stop-color:#EEEEEE"/>
				<stop  offset="1" style="stop-color:#F2F2F2"/>
			</radialGradient>
			<rect x="9.528" y="10.256" clip-path="url(#SVGID_6_)" fill="url(#SVGID_8_)" width="42.451" height="46.121"/>
		</g>
	</mask>
	<line clip-path="url(#SVGID_6_)" mask="url(#SVGID_1_)" fill="none" x1="9.528" y1="56.377" x2="9.528" y2="10.256"/>
</g>
<g>
	<defs>
		<polygon id="SVGID_9_" points="1,1 2,1 1,2 		"/>
	</defs>
	<defs>
		<polygon id="SVGID_11_" points="-1,-1 -2,-1 -1,-2 		"/>
	</defs>
	<clipPath id="SVGID_12_">
		<use xlink:href="#SVGID_9_"  overflow="visible"/>
	</clipPath>
	<clipPath id="SVGID_14_" clip-path="url(#SVGID_12_)">
		<use xlink:href="#SVGID_11_"  overflow="visible"/>
	</clipPath>
	<defs>
		<filter id="Adobe_OpacityMaskFilter_1_" filterUnits="userSpaceOnUse" x="51.979" y="10.256" width="0" height="46.121">
			<feColorMatrix  type="matrix" values="1 0 0 0 0  0 1 0 0 0  0 0 1 0 0  0 0 0 1 0"/>
		</filter>
	</defs>
	<mask maskUnits="userSpaceOnUse" x="51.979" y="10.256" width="0" height="46.121" id="SVGID_4_">
		<g filter="url(#Adobe_OpacityMaskFilter_1_)">
			
				<radialGradient id="SVGID_15_" cx="-458.0615" cy="-515.9277" r="0.1004" gradientTransform="matrix(221.2711 0 0 221.2711 101386.2422 114193.2656)" gradientUnits="userSpaceOnUse">
				<stop  offset="0" style="stop-color:#000000"/>
				<stop  offset="0.5744" style="stop-color:#000000"/>
				<stop  offset="0.6047" style="stop-color:#0F0F0F"/>
				<stop  offset="0.6629" style="stop-color:#373737"/>
				<stop  offset="0.7426" style="stop-color:#767676"/>
				<stop  offset="0.7977" style="stop-color:#A6A6A6"/>
				<stop  offset="0.8032" style="stop-color:#AAAAAA"/>
				<stop  offset="0.8564" style="stop-color:#C9C9C9"/>
				<stop  offset="0.9081" style="stop-color:#E0E0E0"/>
				<stop  offset="0.9569" style="stop-color:#EEEEEE"/>
				<stop  offset="1" style="stop-color:#F2F2F2"/>
			</radialGradient>
			<rect x="9.528" y="10.256" clip-path="url(#SVGID_14_)" fill="url(#SVGID_15_)" width="42.451" height="46.121"/>
		</g>
	</mask>
	<line clip-path="url(#SVGID_14_)" mask="url(#SVGID_4_)" fill="none" x1="51.979" y1="10.256" x2="51.979" y2="56.377"/>
</g>
<g>
	<defs>
		<polygon id="SVGID_17_" points="1,1 2,1 1,2 		"/>
	</defs>
	<defs>
		<polygon id="SVGID_18_" points="-1,-1 -2,-1 -1,-2 		"/>
	</defs>
	<clipPath id="SVGID_19_">
		<use xlink:href="#SVGID_17_"  overflow="visible"/>
	</clipPath>
	<clipPath id="SVGID_20_" clip-path="url(#SVGID_19_)">
		<use xlink:href="#SVGID_18_"  overflow="visible"/>
	</clipPath>
	<defs>
		<filter id="Adobe_OpacityMaskFilter_2_" filterUnits="userSpaceOnUse" x="9.528" y="10.256" width="42.451" height="0">
			<feColorMatrix  type="matrix" values="1 0 0 0 0  0 1 0 0 0  0 0 1 0 0  0 0 0 1 0"/>
		</filter>
	</defs>
	<mask maskUnits="userSpaceOnUse" x="9.528" y="10.256" width="42.451" height="0" id="SVGID_7_">
		<g filter="url(#Adobe_OpacityMaskFilter_2_)">
			
				<radialGradient id="SVGID_21_" cx="-458.0615" cy="-515.9277" r="0.1004" gradientTransform="matrix(221.2711 0 0 221.2711 101386.2422 114193.2656)" gradientUnits="userSpaceOnUse">
				<stop  offset="0" style="stop-color:#000000"/>
				<stop  offset="0.5744" style="stop-color:#000000"/>
				<stop  offset="0.6047" style="stop-color:#0F0F0F"/>
				<stop  offset="0.6629" style="stop-color:#373737"/>
				<stop  offset="0.7426" style="stop-color:#767676"/>
				<stop  offset="0.7977" style="stop-color:#A6A6A6"/>
				<stop  offset="0.8032" style="stop-color:#AAAAAA"/>
				<stop  offset="0.8564" style="stop-color:#C9C9C9"/>
				<stop  offset="0.9081" style="stop-color:#E0E0E0"/>
				<stop  offset="0.9569" style="stop-color:#EEEEEE"/>
				<stop  offset="1" style="stop-color:#F2F2F2"/>
			</radialGradient>
			<rect x="9.528" y="10.256" clip-path="url(#SVGID_20_)" fill="url(#SVGID_21_)" width="42.451" height="46.121"/>
		</g>
	</mask>
	<line clip-path="url(#SVGID_20_)" mask="url(#SVGID_7_)" fill="none" x1="9.528" y1="10.256" x2="51.979" y2="10.256"/>
</g>
<path fill="none" d="M51.868,31.574c-0.155,16.277-11.532,24.803-22.323,24.803S9.528,42.881,9.563,31.273
	c0.035-11.607,8.811-21.017,19.602-21.017C39.957,10.256,51.979,19.967,51.868,31.574"/>
<line fill="none" x1="9.563" y1="10.256" x2="9.563" y2="56.377"/>
<line fill="none" x1="9.563" y1="56.377" x2="51.869" y2="56.377"/>
<g>
	<defs>
		<polygon id="SVGID_22_" points="1,1 2,1 1,2 		"/>
	</defs>
	<defs>
		<polygon id="SVGID_23_" points="-1,-1 -2,-1 -1,-2 		"/>
	</defs>
	<clipPath id="SVGID_24_">
		<use xlink:href="#SVGID_22_"  overflow="visible"/>
	</clipPath>
	<clipPath id="SVGID_25_" clip-path="url(#SVGID_24_)">
		<use xlink:href="#SVGID_23_"  overflow="visible"/>
	</clipPath>
	<defs>
		<filter id="Adobe_OpacityMaskFilter_3_" filterUnits="userSpaceOnUse" x="9.528" y="10.256" width="0" height="46.121">
			<feColorMatrix  type="matrix" values="1 0 0 0 0  0 1 0 0 0  0 0 1 0 0  0 0 0 1 0"/>
		</filter>
	</defs>
	<mask maskUnits="userSpaceOnUse" x="9.528" y="10.256" width="0" height="46.121" id="SVGID_10_">
		<g filter="url(#Adobe_OpacityMaskFilter_3_)">
			
				<radialGradient id="SVGID_26_" cx="-458.0615" cy="-515.9277" r="0.1004" gradientTransform="matrix(221.2711 0 0 221.2711 101386.2422 114193.2656)" gradientUnits="userSpaceOnUse">
				<stop  offset="0" style="stop-color:#FFFFFF"/>
				<stop  offset="1" style="stop-color:#000000"/>
			</radialGradient>
			<rect x="9.528" y="10.256" clip-path="url(#SVGID_25_)" fill="url(#SVGID_26_)" width="42.451" height="46.121"/>
		</g>
	</mask>
	<line clip-path="url(#SVGID_25_)" mask="url(#SVGID_10_)" fill="none" x1="9.528" y1="56.377" x2="9.528" y2="10.256"/>
</g>
<g>
	<defs>
		<polygon id="SVGID_27_" points="1,1 2,1 1,2 		"/>
	</defs>
	<defs>
		<polygon id="SVGID_28_" points="-1,-1 -2,-1 -1,-2 		"/>
	</defs>
	<clipPath id="SVGID_29_">
		<use xlink:href="#SVGID_27_"  overflow="visible"/>
	</clipPath>
	<clipPath id="SVGID_30_" clip-path="url(#SVGID_29_)">
		<use xlink:href="#SVGID_28_"  overflow="visible"/>
	</clipPath>
	<defs>
		<filter id="Adobe_OpacityMaskFilter_4_" filterUnits="userSpaceOnUse" x="51.979" y="10.256" width="0" height="46.121">
			<feColorMatrix  type="matrix" values="1 0 0 0 0  0 1 0 0 0  0 0 1 0 0  0 0 0 1 0"/>
		</filter>
	</defs>
	<mask maskUnits="userSpaceOnUse" x="51.979" y="10.256" width="0" height="46.121" id="SVGID_13_">
		<g filter="url(#Adobe_OpacityMaskFilter_4_)">
			
				<radialGradient id="SVGID_31_" cx="-458.0615" cy="-515.9277" r="0.1004" gradientTransform="matrix(221.2711 0 0 221.2711 101386.2422 114193.2656)" gradientUnits="userSpaceOnUse">
				<stop  offset="0" style="stop-color:#FFFFFF"/>
				<stop  offset="1" style="stop-color:#000000"/>
			</radialGradient>
			<rect x="9.528" y="10.256" clip-path="url(#SVGID_30_)" fill="url(#SVGID_31_)" width="42.451" height="46.121"/>
		</g>
	</mask>
	<line clip-path="url(#SVGID_30_)" mask="url(#SVGID_13_)" fill="none" x1="51.979" y1="10.256" x2="51.979" y2="56.377"/>
</g>
<g>
	<defs>
		<polygon id="SVGID_32_" points="1,1 2,1 1,2 		"/>
	</defs>
	<defs>
		<polygon id="SVGID_33_" points="-1,-1 -2,-1 -1,-2 		"/>
	</defs>
	<clipPath id="SVGID_34_">
		<use xlink:href="#SVGID_32_"  overflow="visible"/>
	</clipPath>
	<clipPath id="SVGID_35_" clip-path="url(#SVGID_34_)">
		<use xlink:href="#SVGID_33_"  overflow="visible"/>
	</clipPath>
	<defs>
		<filter id="Adobe_OpacityMaskFilter_5_" filterUnits="userSpaceOnUse" x="9.528" y="10.256" width="42.451" height="0">
			<feColorMatrix  type="matrix" values="1 0 0 0 0  0 1 0 0 0  0 0 1 0 0  0 0 0 1 0"/>
		</filter>
	</defs>
	<mask maskUnits="userSpaceOnUse" x="9.528" y="10.256" width="42.451" height="0" id="SVGID_16_">
		<g filter="url(#Adobe_OpacityMaskFilter_5_)">
			
				<radialGradient id="SVGID_36_" cx="-458.0615" cy="-515.9277" r="0.1004" gradientTransform="matrix(221.2711 0 0 221.2711 101386.2422 114193.2656)" gradientUnits="userSpaceOnUse">
				<stop  offset="0" style="stop-color:#FFFFFF"/>
				<stop  offset="1" style="stop-color:#000000"/>
			</radialGradient>
			<rect x="9.528" y="10.256" clip-path="url(#SVGID_35_)" fill="url(#SVGID_36_)" width="42.451" height="46.121"/>
		</g>
	</mask>
	<line clip-path="url(#SVGID_35_)" mask="url(#SVGID_16_)" fill="none" x1="9.528" y1="10.256" x2="51.979" y2="10.256"/>
</g>
<path fill="none" d="M51.868,31.574c-0.155,16.277-11.532,24.803-22.323,24.803S9.528,42.881,9.563,31.273
	c0.035-11.607,8.811-21.017,19.602-21.017C39.957,10.256,51.979,19.967,51.868,31.574"/>
<line fill="none" x1="9.563" y1="10.256" x2="9.563" y2="56.377"/>
<line fill="none" x1="9.563" y1="56.377" x2="51.869" y2="56.377"/>
<polygon fill="#F0B886" points="50.73,42.166 35.993,45.052 36.16,40.818 49.025,35.967 "/>
<g opacity="0.3">
	<g>
		<g>
			<defs>
				<rect id="SVGID_37_" x="36.145" y="39.197" width="14.736" height="5.703"/>
			</defs>
			<clipPath id="SVGID_38_">
				<use xlink:href="#SVGID_37_"  overflow="visible"/>
			</clipPath>
			<path clip-path="url(#SVGID_38_)" fill="#CC7B3C" d="M38.936,43.57c0.14-1.209,0.869-3.233,1.277-4.373l-3.902,1.472L36.145,44.9
				l14.736-2.885l-0.374-1.361C50.025,40.775,38.904,43.846,38.936,43.57"/>
		</g>
	</g>
</g>
<path fill="#F0B886" d="M62.852,31.296c-0.287-0.596-0.314-1.642-1.274-1.569c-2.414,0.183-4.794,0.688-7.19,1.032
	c-0.33,0.048-0.652,0.155-0.933,0.328c-0.41,0.252-0.699,0.511-0.917,0.783c0.48-0.881,1.001-1.775,1.313-3.002
	c0.371-1.458,0.033-3.06-0.897-4.27c-0.785-1.019-2.47-1.728-3.927-1.994c-0.389-0.071-0.74,0.229-0.698,0.6
	c0.573,5.107-0.291,8.831-0.869,13.054c0.201,0.594,0.56,1.094,0.919,1.609c0.502,0.723,0.405,3.449,0.76,4.186
	c0.867,1.801,9.053,2.572,11.301,2.254c0.739-0.104,1.31-0.676,1.377-1.379C62.197,38.926,62.96,31.52,62.852,31.296 M51.911,33.139
	c-0.101,0.305-0.194,0.631-0.322,0.982C51.674,33.771,51.783,33.447,51.911,33.139"/>
<g opacity="0.4">
	<g>
		<g>
			<defs>
				<rect id="SVGID_39_" x="47.457" y="27.507" width="3.336" height="15.647"/>
			</defs>
			<clipPath id="SVGID_40_">
				<use xlink:href="#SVGID_39_"  overflow="visible"/>
			</clipPath>
			<path clip-path="url(#SVGID_40_)" fill="#CC7B3C" d="M49.366,40.844c-0.181-0.707-0.124-1.438-0.212-2.156
				c-0.082-0.672-0.859-1.258-1.118-1.865c-0.583-1.368,0.024-2.639,0.222-4.064c0.236-1.72,0.287-3.487,0.24-5.25
				c-0.096,3.101-0.639,5.807-1.041,8.753c0.201,0.595,0.559,1.093,0.919,1.609c0.502,0.723,0.405,3.448,0.761,4.187
				c0.203,0.424,0.814,0.791,1.656,1.1C50.126,42.518,49.598,41.752,49.366,40.844"/>
		</g>
	</g>
</g>
<g opacity="0.4">
	<g>
		<g>
			<defs>
				<rect id="SVGID_41_" x="49.85" y="22.826" width="4.15" height="8.5"/>
			</defs>
			<clipPath id="SVGID_42_">
				<use xlink:href="#SVGID_41_"  overflow="visible"/>
			</clipPath>
			<path clip-path="url(#SVGID_42_)" fill="#CC7B3C" d="M53.357,26.416c-0.019-0.078-0.034-0.156-0.059-0.233
				c-0.017-0.074-0.033-0.148-0.056-0.221c-0.412-1.422-1.693-2.495-3.162-3.028c-0.077-0.036-0.154-0.072-0.231-0.107
				c0.612,0.136,1.219,0.312,1.75,0.627c1.45,0.86,1.982,2.113,2.184,2.664c0.271,0.749,0.285,2.008,0.053,2.77
				c-0.263,0.854-0.611,1.674-1.076,2.439c0.064-0.189,0.124-0.381,0.18-0.574C53.629,29.408,53.836,27.861,53.357,26.416"/>
		</g>
	</g>
</g>
<g opacity="0.4">
	<g>
		<g>
			<defs>
				<rect id="SVGID_43_" x="52.08" y="30.87" width="10.637" height="12.917"/>
			</defs>
			<clipPath id="SVGID_44_">
				<use xlink:href="#SVGID_43_"  overflow="visible"/>
			</clipPath>
			<path clip-path="url(#SVGID_44_)" fill="#CC7B3C" d="M61.344,43.786c-2.971-0.368-5.761-0.265-8.703-0.792
				c-0.055-0.848-1.914-11.707,1.457-12.125c-0.115,0.54-0.214,1.054-0.298,1.618c-0.065,0.435,0.312,0.815,0.776,0.777
				c1.818-0.148,5.934-0.404,8.141-0.283c-0.009,0.121-0.018,0.242-0.023,0.365c-0.043,0.014-0.092,0.021-0.146,0.018
				c-2.244-0.129-5.492-0.047-8.148,0.195c-0.437,0.041-0.773,0.375-0.806,0.787c-0.028,0.401-0.051,0.817-0.067,1.231
				c-0.02,0.46,0.375,0.84,0.863,0.827c1.846-0.043,5.846-0.029,7.897,0.076c-0.013,0.142-0.024,0.281-0.039,0.42
				c-0.019,0.002-0.037,0.004-0.06,0.002c-2.078-0.11-5.416-0.248-7.973-0.256c-0.424-0.002-0.768,0.324-0.762,0.724
				c0.006,0.432,0.02,0.976,0.039,1.521c0.014,0.399,0.361,0.713,0.783,0.711c2.651-0.019,5.67,0.022,7.761,0.324
				c0.134,0.02,0.077,0.381-0.075,0.352c-1.734-0.34-5.117-0.305-7.751-0.395c-0.36-0.013-0.655,0.271-0.635,0.611
				c0.022,0.349,0.047,0.656,0.071,0.921c0.039,0.435,0.388,0.787,0.844,0.853C56.863,42.611,58.907,42.986,61.344,43.786"/>
		</g>
	</g>
</g>
<path fill="#DC9A63" d="M24.723,37.305c0.068,0.609,0.219,5.867,0.276,6.478c0.172,0.3,1.661,0.575,2.294,0.916
	c0.695,0.375,2.188,0.188,2.847-0.248c0.307-0.202,0.682-1.181,1.099-2.224c0.099-0.881,0.28-1.763,0.341-2.646
	C29.828,39.914,26.444,37.107,24.723,37.305"/>
<g opacity="0.2">
	<g>
		<g>
			<defs>
				<rect id="SVGID_45_" x="24.754" y="37.779" width="6.827" height="5.041"/>
			</defs>
			<clipPath id="SVGID_46_">
				<use xlink:href="#SVGID_45_"  overflow="visible"/>
			</clipPath>
			<path clip-path="url(#SVGID_46_)" fill="#221F1F" d="M28.926,42.404c0.167,0.033,2.198-0.746,2.343-0.827
				c0.088-0.812,0.256-1.183,0.312-1.997c-1.606,0.305-3.472-0.907-4.933-1.416c-0.389-0.135-0.787-0.268-1.194-0.336
				c-0.614-0.102-0.719-0.098-0.696,0.561c0.05,1.445,0.298,2.986,0.279,4.434c0.029-0.344-0.126-2.328,0.2-2.465
				c0.264-0.11,1.193,0.642,1.439,0.787C27.318,41.523,28.182,42.255,28.926,42.404"/>
		</g>
	</g>
</g>
<path fill="#F0B886" d="M45.629,23.173c-0.615,0.069-1.146,0.458-1.643,0.844c0.271-1.226,0.541-2.452,0.811-3.677
	c0.325-1.472,0.651-2.957,0.68-4.466c0.075-3.953-2.144-7.915-5.604-9.564c-1.855-0.884-9.059-3.639-16.033-0.811
	c-3.053,1.238-5.396,4.637-6.521,7.83c-0.93,2.64-0.702,5.543-0.295,8.323c-0.419-0.406-0.854-0.819-1.39-1.03
	c-0.545-0.214-1.227-0.171-1.634,0.265c-0.425,0.456-0.426,1.169-0.36,1.798c0.239,2.28,1.014,4.495,2.238,6.401
	c0.423,0.659,1.082,0.979,1.784,0.659c0.187-0.562,0.187,3.43,0.932,4.626c0.606,0.973,7.826,5.662,10.681,7.018
	c0.625,0.297,10.898-4.584,11.586-5.709c0.533-0.873,1.023-3.334,1.318-4.322c0.144-0.483,0.594,0.984,1.436,0.047
	c0.402-0.449,3.041-3.304,3.398-6.896C47.123,23.399,46.242,23.104,45.629,23.173"/>
<g opacity="0.4">
	<g>
		<g>
			<defs>
				<rect id="SVGID_47_" x="17.084" y="15.169" width="28.395" height="26.269"/>
			</defs>
			<clipPath id="SVGID_48_">
				<use xlink:href="#SVGID_47_"  overflow="visible"/>
			</clipPath>
			<path clip-path="url(#SVGID_48_)" fill="#CC7B3C" d="M45.477,15.874c0.006-0.235,0-0.47-0.012-0.705
				c-0.576,1.243-4.344,18.956-5.303,20.29c-0.84,1.168-2.071,1.536-3.319,2.174c-1.616,0.828-3.274,1.566-4.918,2.336
				c-0.484,0.229-1.708,0.614-2.532,0.959c-2.08-0.896-8.292-4.686-9.887-6.313c-1.376-1.404-2.021-11.409-2.417-14.147
				c-0.077-0.005,0.709,12.817,1.505,13.905c1.248,1.707,10.461,6.912,10.461,6.912s0.149,0.071,0.219,0.104
				c0.128,0.063,0.094,0.111,0.792-0.16c2.552-0.851,10.204-4.584,10.795-5.549c0.092-0.15,0.182-0.35,0.271-0.58
				c0.859-3.72,3.396-13.534,3.664-14.76C45.122,18.868,45.448,17.383,45.477,15.874"/>
		</g>
	</g>
</g>
<path fill="#CF8B54" d="M45.875,25.979c-0.037-0.176-0.271-0.233-0.443-0.202c-0.17,0.031-1.475,0.973-1.627,1.416
	c0.586-1.745,2.174-3.047,2.049-2.964c-1.582,1.045-2.432,2.714-3.164,5.277c-0.051,0.176,0.951-2.578,2.472-3.218
	c0.133-0.056,0.278-0.144,0.399-0.068c0.096,0.059,0.129,0.183,0.141,0.296c0.017,0.176,0,0.355-0.051,0.524
	C45.766,26.804,45.973,26.456,45.875,25.979"/>
<path fill="#CF8B54" d="M14.684,23.458c0.07-0.166,0.311-0.174,0.473-0.109c0.162,0.065,1.254,1.253,1.315,1.718
	c-0.229-1.828-1.529-3.426-1.422-3.319c1.343,1.345,1.847,3.151,2.061,5.811c0.015,0.183-0.424-2.718-1.788-3.653
	c-0.119-0.082-0.245-0.198-0.379-0.148c-0.104,0.039-0.161,0.153-0.194,0.262c-0.052,0.168-0.07,0.348-0.054,0.524
	C14.628,24.289,14.493,23.906,14.684,23.458"/>
<g opacity="0.6">
	<g>
		<g>
			<defs>
				<rect id="SVGID_49_" x="33.311" y="25.786" width="7.573" height="0.367"/>
			</defs>
			<clipPath id="SVGID_50_">
				<use xlink:href="#SVGID_49_"  overflow="visible"/>
			</clipPath>
			<path clip-path="url(#SVGID_50_)" fill="#C98D5D" d="M40.876,25.786c-2.334,0.043-7.745-0.038-7.562,0.192
				c0.104,0.132,0.1,0.171,0.315,0.174C33.715,26.154,41.162,25.781,40.876,25.786"/>
		</g>
	</g>
</g>
<g opacity="0.6">
	<g>
		<g>
			<defs>
				<rect id="SVGID_51_" x="20.539" y="23.638" width="7.398" height="1.787"/>
			</defs>
			<clipPath id="SVGID_52_">
				<use xlink:href="#SVGID_51_"  overflow="visible"/>
			</clipPath>
			<path clip-path="url(#SVGID_52_)" fill="#C98D5D" d="M20.547,23.639c2.282,0.497,7.607,1.471,7.383,1.662
				c-0.127,0.109-0.129,0.148-0.344,0.109C27.504,25.396,20.267,23.578,20.547,23.639"/>
		</g>
	</g>
</g>
<g opacity="0.1">
	<g>
		<g>
			<defs>
				<rect id="SVGID_53_" x="33.799" y="25.939" width="8.355" height="2.326"/>
			</defs>
			<clipPath id="SVGID_54_">
				<use xlink:href="#SVGID_53_"  overflow="visible"/>
			</clipPath>
			<path clip-path="url(#SVGID_54_)" fill="#FFFFFF" d="M34.51,28.16c-0.941-0.169-0.951-1.562-0.01-1.746
				c0.049-0.009,0.098-0.019,0.146-0.028c2.25-0.417,4.549-0.543,6.826-0.375c0.188,0.015,0.373,0.086,0.506,0.223
				c0.453,0.461,0.068,1.191-1.654,1.533C39.586,27.914,36.418,28.502,34.51,28.16"/>
		</g>
	</g>
</g>
<g opacity="0.1">
	<g>
		<g>
			<defs>
				<rect id="SVGID_55_" x="19.974" y="23.931" width="8.085" height="3.523"/>
			</defs>
			<clipPath id="SVGID_56_">
				<use xlink:href="#SVGID_55_"  overflow="visible"/>
			</clipPath>
			<path clip-path="url(#SVGID_56_)" fill="#FFFFFF" d="M27.172,27.453c0.957,0.025,1.239-1.338,0.353-1.708
				c-0.046-0.02-0.092-0.039-0.138-0.057c-2.122-0.865-4.35-1.455-6.615-1.75c-0.187-0.024-0.381,0.008-0.54,0.115
				c-0.535,0.361-0.302,1.154,1.32,1.838C22.246,26.184,25.235,27.402,27.172,27.453"/>
		</g>
	</g>
</g>
<path fill="#CF8B54" d="M34.088,19.908c-1.438,1.565-1.969,6.126-1.722,8.238c-0.142,0.031,2.106,1.037,2.813,2.308
	c0.398,0.713-4.354,3.521-7.847-0.458c-0.837-0.954,2.359-2,3.035-2.124c0.266-0.049,0.27-0.479,0.313-0.755
	c0.201-1.279,0.402-2.568,0.353-3.861c-0.048-1.294-0.625-3.114-1.37-4.15c0.846,1.214,1.574,2.6,1.643,4.706
	c0.049,1.5-0.262,2.791-0.472,4.277c-1.237,0.372-2.867,0.59-3.237,1.66c0.945,1.118,5.232,2.411,7.125,0.762
	c-0.119-0.398-1.234-1.431-1.623-1.543c-1.125-0.328-2.016-0.535-3.236-0.282c0.671-0.273,1.496-0.451,2.212-0.52
	c-0.222-0.481-0.127-3.402,0.228-4.707C33.041,20.746,34.248,19.83,34.088,19.908"/>
<g opacity="0.4">
	<g>
		<g>
			<defs>
				<rect id="SVGID_57_" x="28.281" y="28.702" width="5.982" height="1.348"/>
			</defs>
			<clipPath id="SVGID_58_">
				<use xlink:href="#SVGID_57_"  overflow="visible"/>
			</clipPath>
			<path clip-path="url(#SVGID_58_)" fill="#FFFFFF" d="M28.281,29.256c0.023-0.018,0.065,0.002,0.059,0.031
				c-0.007,0.029-0.062,0.007-0.044-0.016c1.85-0.975,4.247-0.637,5.968,0.552C33.395,30.232,29.889,30.112,28.281,29.256"/>
		</g>
	</g>
</g>
<g opacity="0.2">
	<g>
		<g>
			<defs>
				<rect id="SVGID_59_" x="32.434" y="18.828" width="8.823" height="5.963"/>
			</defs>
			<clipPath id="SVGID_60_">
				<use xlink:href="#SVGID_59_"  overflow="visible"/>
			</clipPath>
			<path clip-path="url(#SVGID_60_)" fill="#221F1F" d="M39.422,19.046c-0.363-0.03-1.525-0.027-1.891-0.058
				c-0.732-0.031-1.827,0.748-2.559,0.721c-0.16,0.006-0.318,0.014-0.479,0.023c-0.366,0.152-0.62,0.498-0.833,0.842
				c-0.774,1.253-1.095,2.737-1.229,4.217c0.23-1.516,1.177-2.815,2.487-3.535c1.31-0.72,4.863-2.226,6.336-2.382
				C40.979,18.701,39.746,19.073,39.422,19.046"/>
		</g>
	</g>
</g>
<g opacity="0.2">
	<g>
		<g>
			<defs>
				<rect id="SVGID_61_" x="24.954" y="18.593" width="6.005" height="5.819"/>
			</defs>
			<clipPath id="SVGID_62_">
				<use xlink:href="#SVGID_61_"  overflow="visible"/>
			</clipPath>
			<path clip-path="url(#SVGID_62_)" fill="#221F1F" d="M25.919,18.632c0.364,0.044,0.728,0.088,1.092,0.132
				c0.723,0.118,1.446,0.231,2.168,0.353c0.155,0.038,0.31,0.078,0.463,0.12c0.328,0.223,0.51,0.613,0.65,0.993
				c0.513,1.385,0.78,2.706,0.62,4.183c0.073-1.533-0.846-2.799-1.988-3.77c-1.142-0.971-2.558-1.523-3.971-1.975
				C25.261,18.555,25.597,18.593,25.919,18.632"/>
		</g>
	</g>
</g>
<path fill="#4A2D1B" d="M27.492,16.906c0.122,0.228,0.205,0.473,0.244,0.723c-0.34-0.29-0.715-0.545-1.116-0.759
	c0.046,0.15,0.092,0.301,0.138,0.452c-1.37-0.609-2.976-0.149-4.389,0.316c-0.803,0.265-1.661,0.568-2.119,1.221
	c0.537,0.01,1.074,0.02,1.611,0.03c2.708,0.05,5.465,0.108,8.05,0.89C29.365,18.671,28.528,17.678,27.492,16.906"/>
<g>
	<g>
		<g>
			<defs>
				<rect id="SVGID_63_" x="20.275" y="16.885" width="9.661" height="2.909"/>
			</defs>
			<clipPath id="SVGID_64_">
				<use xlink:href="#SVGID_63_"  overflow="visible"/>
			</clipPath>
			<path clip-path="url(#SVGID_64_)" fill="#221F1F" d="M20.275,18.874c0.537,0.01,1.074,0.02,1.611,0.03
				c2.708,0.051,5.465,0.108,8.05,0.89c-0.546-1.108-1.383-2.102-2.419-2.874c0.122,0.229,0.204,0.474,0.244,0.723
				c-0.339-0.29-0.715-0.544-1.116-0.758l0.138,0.452c-0.36-0.161-0.737-0.247-1.123-0.278c0,0-0.206,0.001-0.354-0.014
				c-0.306-0.031-0.654,0.036-0.953,0.085c-0.672,0.11-1.321,0.313-1.96,0.524C21.591,17.918,20.733,18.222,20.275,18.874
				 M20.574,18.738c3.854-2.353,6.435-1.348,6.884-0.531c0-0.255-0.104-0.51-0.286-0.707c0.357,0.285,0.689,0.595,0.993,0.926
				c-0.024-0.246-0.144-0.711-0.227-0.947c0.565,0.532,1.181,1.3,1.614,1.926c-1.378-0.414-2.903-0.624-4.364-0.663
				S22.035,18.713,20.574,18.738"/>
		</g>
	</g>
</g>
<path fill="#4A2D1B" d="M36.146,17.053c-0.104,0.229-0.172,0.474-0.201,0.724c0.301-0.291,0.634-0.549,0.99-0.766
	c-0.037,0.151-0.074,0.302-0.111,0.452c1.224-0.619,2.64-0.215,3.935,0.24c0.735,0.259,1.574,0.598,2.009,1.245
	c-0.486,0.015-0.974,0.028-1.459,0.042c-2.455,0.071-4.953,0.15-7.272,0.95C34.498,18.83,35.229,17.832,36.146,17.053"/>
<g>
	<g>
		<g>
			<defs>
				<rect id="SVGID_65_" x="34.004" y="16.988" width="8.73" height="2.93"/>
			</defs>
			<clipPath id="SVGID_66_">
				<use xlink:href="#SVGID_65_"  overflow="visible"/>
			</clipPath>
			<path clip-path="url(#SVGID_66_)" fill="#010101" d="M40.779,17.723c-0.584-0.206-1.178-0.403-1.791-0.509
				c-0.271-0.047-0.59-0.111-0.865-0.078c-0.135,0.017-0.32,0.017-0.32,0.017c-0.349,0.035-0.688,0.124-1.01,0.287l0.111-0.452
				c-0.357,0.217-0.689,0.474-0.989,0.766c0.028-0.25,0.097-0.495,0.2-0.724c-0.918,0.778-1.647,1.777-2.111,2.888
				c2.32-0.8,4.818-0.879,7.271-0.95c0.486-0.014,0.974-0.028,1.459-0.042C42.302,18.278,41.516,17.981,40.779,17.723
				 M38.277,18.832c-1.324,0.05-2.699,0.271-3.938,0.695c0.375-0.628,0.91-1.4,1.408-1.935c-0.067,0.236-0.164,0.702-0.179,0.947
				c0.267-0.333,0.559-0.646,0.873-0.933c-0.158,0.198-0.244,0.454-0.237,0.708c0.384-0.818,2.694-1.842,6.256,0.479
				C41.137,18.778,39.602,18.782,38.277,18.832"/>
		</g>
	</g>
</g>
<path fill="#4A2D1B" d="M48.266,16.785c-0.111-0.525-1.955-4.7-3.064-5.865c0.099-0.079,0.529-0.478,0.555-0.728
	c-0.334,0.244-0.667,0.346-1.076,0.353c0.719-0.528,0.514-1.144,0.332-2.024c-0.156,0.185-0.313,0.37-0.469,0.555
	c0.057-0.252,0.063-0.515,0.02-0.769c-0.14,0.207-0.299,0.401-0.474,0.58c0.017-0.47-0.063-0.97-0.045-1.44
	c-0.246,0.379-0.508,0.846-0.56,0.959c0.259-0.887,0.182-1.621,0.142-2.544c-0.099,0.43-0.258,0.847-0.472,1.232
	c-0.028-0.404-0.057-0.808-0.086-1.212c-0.133,0.478-0.266,0.956-0.397,1.433c0.009-1.197-0.267-2.394-0.795-3.46
	c0.002,0.691-0.146,1.382-0.428,2.012c-0.022-0.45-0.111-0.896-0.261-1.319c-0.092,0.523-0.233,1.037-0.424,1.532
	c0.041-0.472,0.045-0.946,0.014-1.418c-0.051,0.25-0.174,0.485-0.348,0.67c0.094-0.752,0.08-1.518-0.043-2.265
	C40.157,3.709,39.93,4.35,39.7,4.99c-0.22-1.021-0.728-1.976-1.446-2.719c-0.195,0.635-0.541,1.222-1,1.695
	c0.1-0.392,0.201-0.783,0.301-1.175c-0.266,0.288-0.484,0.623-0.641,0.985c0.127-0.671,0.203-1.423,0.329-2.094
	c-0.738,0.322-2.411,1.229-2.339,1.188c0.01-0.094,0.547-0.711,0.556-0.806c-0.147,0.08-0.847,0.64-1.012,0.626
	c0.22-0.38,0.44-0.759,0.661-1.139c-1.448,0.05-2.889,0.335-4.251,0.843c0.017-0.164,0.033-0.328,0.049-0.491l-0.794,0.346
	c0.105-0.346,0.212-0.691,0.317-1.037c-1.061,0.281-2.062,0.794-2.917,1.494c0.002-0.236,0.004-0.474,0.007-0.71
	c-0.503,0.45-0.968,0.945-1.388,1.476c-0.083-0.387-0.073-0.795,0.03-1.178c-0.789,0.36-1.452,1.002-1.846,1.787
	c-0.417,0.108-0.888-0.222-0.936-0.658c-0.51,0.527-0.908,1.165-1.158,1.857c0.054-0.174-0.15-0.539-0.097-0.714
	c-0.534,0.448-0.706,1.213-0.99,1.854c-0.168-0.115-0.336-0.231-0.504-0.347c-0.489,0.287-0.748,0.929-0.6,1.481
	c-0.277-0.012-0.535-0.224-0.605-0.498c-0.186,0.282-0.25,0.646-0.169,0.975c-0.2-0.091-0.4-0.181-0.601-0.271
	c0.109,0.159,0.074,0.425,0.184,0.585c-1.711,1.041-3.316,2.014-4.561,4.175c-0.981,1.706,0.034,6.116,0.244,7.998
	c3.069,0.168,2.682,4.344,3.2,6.769c-0.123-1.774,0.4-5.367,0.719-7.117c0.196-1.073-0.776-5.197-0.786-5.863
	c-0.005-0.367,4.16-3.64,5.955-4.327c3.015,0.778,5.575,2.458,8.196,4.158c0.751-0.362,6.815-2.747,8.399-2.769
	c2.37,1.413,3.897,3.77,4.946,6.358c0.074-0.017-0.695,2.535-1.443,4.739c-0.217,2.196-0.639,4.664-0.793,6.53
	c0.367-0.211,1.216-5.509,3.775-5.784c0.453-0.048,0.586,0.415,0.629,0.311c0.681-1.688,0.701-3.306,0.936-5.114
	C48.328,17.87,48.377,17.317,48.266,16.785"/>
<g opacity="0.7">
	<g>
		<g>
			<defs>
				<rect id="SVGID_67_" x="29.509" y="2.379" width="4.354" height="9.502"/>
			</defs>
			<clipPath id="SVGID_68_">
				<use xlink:href="#SVGID_67_"  overflow="visible"/>
			</clipPath>
			<path clip-path="url(#SVGID_68_)" fill="#FFFFFF" d="M30.418,5.401c-0.502,0.99-0.377,2.104-0.212,3.161
				c-0.336-1.002-0.593-2.063-0.461-3.116C29.639,6.292,29.416,7.06,29.55,7.93c0.101,0.651,0.366,1.356,0.607,1.966
				c0.262,0.662,0.524,1.323,0.786,1.985c-0.68-3.129,0.326-6.045,2.167-8.544c0.192-0.262,0.475-0.798,0.754-0.958
				C32.52,3.145,31.125,4.007,30.418,5.401"/>
		</g>
	</g>
</g>
<g opacity="0.7">
	<g>
		<g>
			<defs>
				<rect id="SVGID_69_" x="31.639" y="2.746" width="3.265" height="9.651"/>
			</defs>
			<clipPath id="SVGID_70_">
				<use xlink:href="#SVGID_69_"  overflow="visible"/>
			</clipPath>
			<path clip-path="url(#SVGID_70_)" fill="#FFFFFF" d="M33.043,6.331c0.504-1.061,1.057-2.74,1.861-3.585
				c-2.43,2.549-3.691,6.11-3.135,9.651C31.733,11.32,32.018,10.2,32.4,9.2c0.152-0.397,0.823-2.074,1.049-2.46
				c-0.524,0.891-0.99,1.554-1.452,2.924C32.229,8.546,32.557,7.357,33.043,6.331"/>
		</g>
	</g>
</g>
<g opacity="0.7">
	<g>
		<g>
			<defs>
				<rect id="SVGID_71_" x="31.99" y="2.757" width="4.813" height="9.386"/>
			</defs>
			<clipPath id="SVGID_72_">
				<use xlink:href="#SVGID_71_"  overflow="visible"/>
			</clipPath>
			<path clip-path="url(#SVGID_72_)" fill="#FFFFFF" d="M36.803,2.757c-0.588,2.676-2.349,6.516-4.813,9.386
				C33.646,8.578,34.686,4.47,36.803,2.757"/>
		</g>
	</g>
</g>
<g opacity="0.7">
	<g>
		<g>
			<defs>
				<rect id="SVGID_73_" x="32.749" y="3.595" width="4.448" height="8.588"/>
			</defs>
			<clipPath id="SVGID_74_">
				<use xlink:href="#SVGID_73_"  overflow="visible"/>
			</clipPath>
			<path clip-path="url(#SVGID_74_)" fill="#FFFFFF" d="M32.749,12.183c1.929-2.312,3.364-5.764,4.448-8.588
				C36.492,8.45,33.16,11.946,32.749,12.183"/>
		</g>
	</g>
</g>
<g opacity="0.7">
	<g>
		<g>
			<defs>
				<rect id="SVGID_75_" x="34.389" y="3.02" width="4.65" height="7.912"/>
			</defs>
			<clipPath id="SVGID_76_">
				<use xlink:href="#SVGID_75_"  overflow="visible"/>
			</clipPath>
			<path clip-path="url(#SVGID_76_)" fill="#FFFFFF" d="M37.021,8.894c-0.824,0.748-1.705,1.43-2.633,2.039
				c2.188-1.876,3.862-4.785,4.108-7.912c0.133,0.023,1.185,2.365-0.062,4.267C38.131,7.755,37.434,8.52,37.021,8.894"/>
		</g>
	</g>
</g>
<g opacity="0.7">
	<g>
		<g>
			<defs>
				<rect id="SVGID_77_" x="28.548" y="2.796" width="1.753" height="6.718"/>
			</defs>
			<clipPath id="SVGID_78_">
				<use xlink:href="#SVGID_77_"  overflow="visible"/>
			</clipPath>
			<path clip-path="url(#SVGID_78_)" fill="#FFFFFF" d="M29.391,9.514c-0.674-1.023-0.963-2.305-0.797-3.529
				c0.166-1.224,0.786-2.382,1.708-3.188C28.881,4.673,28.522,7.326,29.391,9.514"/>
		</g>
	</g>
</g>
<g opacity="0.7">
	<g>
		<g>
			<defs>
				<rect id="SVGID_79_" x="27.124" y="1.948" width="2.566" height="8.834"/>
			</defs>
			<clipPath id="SVGID_80_">
				<use xlink:href="#SVGID_79_"  overflow="visible"/>
			</clipPath>
			<path clip-path="url(#SVGID_80_)" fill="#FFFFFF" d="M27.126,5.847c0.016-0.701,0.305-1.465,0.641-2.079
				c0.431-0.787,1.179-1.334,1.923-1.819c-1.094,1.123-1.696,2.693-1.784,4.271c-0.087,1.577,0.316,3.157,1.016,4.563
				C27.842,9.379,27.084,7.635,27.126,5.847"/>
		</g>
	</g>
</g>
<g opacity="0.7">
	<g>
		<g>
			<defs>
				<rect id="SVGID_81_" x="33.533" y="4.221" width="6.886" height="8.211"/>
			</defs>
			<clipPath id="SVGID_82_">
				<use xlink:href="#SVGID_81_"  overflow="visible"/>
			</clipPath>
			<path clip-path="url(#SVGID_82_)" fill="#FFFFFF" d="M40.398,4.224c-0.234,1.841-1.246,3.509-2.523,4.836
				s-2.816,2.354-4.342,3.372c2.023-0.9,3.994-2.064,5.188-3.369C40.697,6.9,40.41,4.127,40.398,4.224"/>
		</g>
	</g>
</g>
<g opacity="0.7">
	<g>
		<g>
			<defs>
				<rect id="SVGID_83_" x="25.797" y="2.847" width="1.658" height="7.164"/>
			</defs>
			<clipPath id="SVGID_84_">
				<use xlink:href="#SVGID_83_"  overflow="visible"/>
			</clipPath>
			<path clip-path="url(#SVGID_84_)" fill="#FFFFFF" d="M27.455,10.011c-0.885-1.074-1.613-1.757-1.657-3.518
				c-0.033-1.318,0.679-2.525,1.366-3.646c-0.529,1.143-0.873,2.39-0.867,3.651C26.303,7.759,26.676,9.035,27.455,10.011"/>
		</g>
	</g>
</g>
<g opacity="0.7">
	<g>
		<g>
			<defs>
				<rect id="SVGID_85_" x="19.08" y="7.676" width="3.556" height="2.375"/>
			</defs>
			<clipPath id="SVGID_86_">
				<use xlink:href="#SVGID_85_"  overflow="visible"/>
			</clipPath>
			<path clip-path="url(#SVGID_86_)" fill="#FFFFFF" d="M19.08,8.37c0.485,0.455,1.116,0.987,1.758,1.143
				c-0.693-0.419-1.246-1.075-1.548-1.837c0.788,0.887,2.799,2.164,3.346,2.254C22.254,10.161,19.742,10.251,19.08,8.37"/>
		</g>
	</g>
</g>
<g opacity="0.7">
	<g>
		<g>
			<defs>
				<rect id="SVGID_87_" x="20.582" y="6.432" width="3.082" height="3.286"/>
			</defs>
			<clipPath id="SVGID_88_">
				<use xlink:href="#SVGID_87_"  overflow="visible"/>
			</clipPath>
			<path clip-path="url(#SVGID_88_)" fill="#FFFFFF" d="M20.595,6.432c0.671,1.235,3.058,3.236,3.068,3.278
				c0.02,0.077-1.448-0.421-1.927-0.791C20.895,8.269,20.502,7.344,20.595,6.432"/>
		</g>
	</g>
</g>
<g opacity="0.7">
	<g>
		<g>
			<defs>
				<rect id="SVGID_89_" x="21.92" y="4.824" width="2.498" height="4.612"/>
			</defs>
			<clipPath id="SVGID_90_">
				<use xlink:href="#SVGID_89_"  overflow="visible"/>
			</clipPath>
			<path clip-path="url(#SVGID_90_)" fill="#FFFFFF" d="M22.081,4.824c0.208,1.757,1.054,3.425,2.336,4.612
				c-0.531-0.302-0.994-0.717-1.396-1.182c-0.66-0.763-0.538-0.328-0.948-1.59C21.88,6.07,21.854,5.407,22.081,4.824"/>
		</g>
	</g>
</g>
<g opacity="0.7">
	<g>
		<g>
			<defs>
				<rect id="SVGID_91_" x="23.301" y="2.556" width="2.993" height="7.831"/>
			</defs>
			<clipPath id="SVGID_92_">
				<use xlink:href="#SVGID_91_"  overflow="visible"/>
			</clipPath>
			<path clip-path="url(#SVGID_92_)" fill="#FFFFFF" d="M26.294,10.386c-1.109-0.5-2.027-1.422-2.534-2.545
				c-0.507-1.123-0.598-2.437-0.251-3.626c0.383,1.667,0.897,3.344,1.898,4.717c-0.434-0.595-0.757-1.396-0.838-2.135
				c-0.091-0.832-0.176-1.622,0.095-2.438c0.244-0.735,0.725-1.397,1.375-1.802c-0.41,0.444-0.649,1.03-0.77,1.626
				c-0.216,1.069-0.182,2.214,0.014,3.281c0.095,0.517,0.228,1.025,0.4,1.521c0.084,0.241,0.177,0.479,0.278,0.713
				C26.018,9.828,26.168,10.33,26.294,10.386"/>
		</g>
	</g>
</g>
<g opacity="0.7">
	<g>
		<g>
			<defs>
				<rect id="SVGID_93_" x="37.249" y="5.618" width="3.854" height="5.654"/>
			</defs>
			<clipPath id="SVGID_94_">
				<use xlink:href="#SVGID_93_"  overflow="visible"/>
			</clipPath>
			<path clip-path="url(#SVGID_94_)" fill="#FFFFFF" d="M37.249,11.272c1.157-0.366,2.188-1.137,2.879-2.153
				c0.69-1.016,1.036-2.27,0.966-3.501C40.572,9.284,37.621,10.904,37.249,11.272"/>
		</g>
	</g>
</g>
<g opacity="0.7">
	<g>
		<g>
			<defs>
				<rect id="SVGID_95_" x="39.625" y="4.465" width="3.453" height="6.412"/>
			</defs>
			<clipPath id="SVGID_96_">
				<use xlink:href="#SVGID_95_"  overflow="visible"/>
			</clipPath>
			<path clip-path="url(#SVGID_96_)" fill="#FFFFFF" d="M39.625,10.877c0.98-0.487,3.535-2.479,3.45-4.073
				c-0.168,0.97-1.054,1.645-1.03,1.647c0.098,0.01,0.487-1.078,0.461-2.055c-0.014-0.544-0.52-1.813-0.475-1.932
				c0.203,1.409,0.121,2.923-0.826,4.387C40.699,9.636,39.773,10.704,39.625,10.877"/>
		</g>
	</g>
</g>
<g opacity="0.7">
	<g>
		<g>
			<defs>
				<rect id="SVGID_97_" x="41.045" y="6.945" width="2.59" height="3.767"/>
			</defs>
			<clipPath id="SVGID_98_">
				<use xlink:href="#SVGID_97_"  overflow="visible"/>
			</clipPath>
			<path clip-path="url(#SVGID_98_)" fill="#FFFFFF" d="M43.613,6.944c-0.012-0.006-0.529,3.123-2.568,3.768
				c0.264-0.03,1.014-0.11,1.576-0.645C43.039,9.671,43.766,7.68,43.613,6.944"/>
		</g>
	</g>
</g>
<g opacity="0.7">
	<g>
		<g>
			<defs>
				<rect id="SVGID_99_" x="41.959" y="8.081" width="2.449" height="3.073"/>
			</defs>
			<clipPath id="SVGID_100_">
				<use xlink:href="#SVGID_99_"  overflow="visible"/>
			</clipPath>
			<path clip-path="url(#SVGID_100_)" fill="#FFFFFF" d="M44.408,8.692c-0.174,0.557-0.762,1.318-0.703,1.177
				c0.195-0.473,0.307-1.276,0.297-1.788c-0.07,0.466-0.238,1.057-0.455,1.474c-0.354,0.676-0.98,1.149-1.588,1.6
				c0.111-0.035,1.292-0.221,2.023-1.085C44.293,9.7,44.338,9.173,44.408,8.692"/>
		</g>
	</g>
</g>
<g opacity="0.7">
	<g>
		<g>
			<defs>
				<rect id="SVGID_101_" x="42.191" y="8.89" width="3.383" height="2.688"/>
			</defs>
			<clipPath id="SVGID_102_">
				<use xlink:href="#SVGID_101_"  overflow="visible"/>
			</clipPath>
			<path clip-path="url(#SVGID_102_)" fill="#FFFFFF" d="M43.923,11.22c-0.136,0.025-0.698,0.14-0.946,0.135
				c0.062-0.026,1.478-0.419,1.936-1.231c0.205-0.365,0.109-0.823,0.027-1.233c0.029,0.913-0.35,1.183-0.727,1.531
				c-0.333,0.308-1.797,0.834-2.021,0.926c0.289,0.111,1.82,0.342,2.22,0.168c0.473-0.207,0.825-0.616,1.164-1.014
				C45.104,10.85,43.975,11.213,43.923,11.22"/>
		</g>
	</g>
</g>
<g opacity="0.7">
	<g>
		<g>
			<defs>
				<rect id="SVGID_103_" x="14.326" y="11.25" width="5.042" height="8.02"/>
			</defs>
			<clipPath id="SVGID_104_">
				<use xlink:href="#SVGID_103_"  overflow="visible"/>
			</clipPath>
			<path clip-path="url(#SVGID_104_)" fill="#FFFFFF" d="M18.532,11.502c-0.246,0.127-1.299,1.378-1.455,1.578
				c0.023-0.234,0.716-1.663,0.879-1.83c-0.813,0.835-1.476,1.939-1.771,3.027c0.058-0.414,0.569-1.841,0.686-2.251
				c0.061-0.212-1.063,1.21-1.1,1.271c0.052-0.158,0.064-0.519,0.138-0.677c0.104-0.224-0.822,0.75-1.089,2.146
				c0.039-2.233,1.638-3.384,1.478-3.256c-0.868,0.696-1.781,1.95-1.886,2.53c-0.202,1.12-0.013,2.319,0.219,3.426
				c0.042,0.199,0.179-2.548,0.698-3.048c-0.001,0.094-0.186,1.182-0.181,1.278c0.007,0.179,0.556-1.171,0.634-1.3
				c-0.076,0.835-0.093,1.99,0.069,2.832c-0.046-0.24,0.101-0.799,0.143-1.079c0.051-0.334,0.092-0.675,0.192-0.996
				c0.098-0.311,0.288-0.678,0.321-1.002c-0.195,1.255-0.121,2.551,0.214,3.771c-0.181-0.938-0.073-1.908,0.036-2.858
				c0.078,0.299,0.157,0.598,0.235,0.897c0.288,1.096,0.576,2.192,0.777,3.308c-0.137-1.299-0.274-2.599-0.411-3.899
				c-0.028-0.268-0.056-0.541-0.007-0.806c0.097-0.517,0.65-1.046,1.024-1.385c0.314-0.284,0.689-0.499,0.993-0.791
				c-0.402,0.387-1.078,0.364-1.611,0.948c-0.026,0.029,0.458-0.697,0.575-0.928c-0.278,0.288-0.553,0.578-0.824,0.871
				C17.711,12.752,18.458,11.568,18.532,11.502"/>
		</g>
	</g>
</g>
<g opacity="0.7">
	<g>
		<g>
			<defs>
				<rect id="SVGID_105_" x="44.449" y="14.016" width="3.638" height="8.721"/>
			</defs>
			<clipPath id="SVGID_106_">
				<use xlink:href="#SVGID_105_"  overflow="visible"/>
			</clipPath>
			<path clip-path="url(#SVGID_106_)" fill="#FFFFFF" d="M48.086,17.767c0.027-1.409-0.52-2.151-1.26-3.748
				c-0.047-0.101,0.994,2.236,0.979,3.356c-0.006,0.421-0.402,1.486-0.476,1.526c0.147-1.249,0.065-2.495-0.661-3.591
				c-0.053-0.078,0.76,2.026-0.107,3.719c0.037-0.269,0.113-1.666,0.142-1.942c-0.028,0.288-0.288,1.226-0.677,1.656
				c0.334-1.477,0.425-1.917-0.596-3.654c-0.205-0.348-0.395-0.706-0.592-1.058c0.258,0.662,1.051,2.833,0.994,2.946
				c-0.199-0.775-0.788-1.238-1.023-1.543c0.311,0.467,0.707,1.295,0.783,1.873c0.072,0.563,0.012,1.076-0.139,1.613
				c-0.352,1.264-0.9,2.493-1.004,3.816c0.197-1.098,0.559-2.166,1.064-3.156c-0.029,0.47-0.179,0.912-0.225,1.367
				c0.284-0.541,0.559-1.085,0.824-1.633c-0.067,0.39-0.163,1.163-0.293,1.545c-0.043,0.124,0.925-1.171,1.062-1.595
				c0.154,0.902-0.626,2.858-0.705,3.224c-0.026,0.128,1.132-2.56,1.171-2.645c0.204-0.424-0.171,1.898-0.121,1.817
				C47.883,20.592,48.061,19.003,48.086,17.767"/>
		</g>
	</g>
</g>
<g opacity="0.5">
	<g>
		<g>
			<defs>
				<rect id="SVGID_107_" x="14.393" y="15.384" width="3.737" height="9.679"/>
			</defs>
			<clipPath id="SVGID_108_">
				<use xlink:href="#SVGID_107_"  overflow="visible"/>
			</clipPath>
			<path clip-path="url(#SVGID_108_)" fill="#010101" d="M16.29,15.953c0.012,0.846,0.066,1.691,0.163,2.532l0.044-0.317
				c0.09,0.46,0.18,0.92,0.27,1.381c0.03-1.249,0.061-2.497,0.091-3.746c0.454,1.571,0.744,3.193,0.861,4.828
				c0.175-1.175,0.24-2.366,0.196-3.553c0.249,1.253,0.281,2.552,0.097,3.819c-0.203,1.392-0.667,2.761-0.6,4.166
				c-0.146-0.665-0.189-1.35-0.313-2.019s-0.338-1.342-0.77-1.86c-0.433-0.518-1.119-0.855-1.774-0.718
				c-0.016-1.219-0.07-2.437-0.162-3.651c0.098,0.707,0.259,1.404,0.479,2.08c0.011-0.941,0.087-1.881,0.228-2.812l0.092,1.533
				c0.033-0.75,0.13-1.498,0.29-2.231c0.061,1.455,0.244,2.904,0.548,4.326C15.975,18.454,16.062,17.19,16.29,15.953"/>
		</g>
	</g>
</g>
<g opacity="0.5">
	<g>
		<g>
			<defs>
				<rect id="SVGID_109_" x="15.183" y="8.396" width="7.747" height="4.609"/>
			</defs>
			<clipPath id="SVGID_110_">
				<use xlink:href="#SVGID_109_"  overflow="visible"/>
			</clipPath>
			<path clip-path="url(#SVGID_110_)" fill="#010101" d="M17.062,11.774c0.473-0.657,1.109-1.191,1.833-1.537
				c-0.419,0.407-0.758,0.9-0.989,1.441c0.448-0.47,0.989-0.847,1.581-1.101c-0.455,0.418-0.842,1.056-1.202,1.561
				c0.471-0.466,0.982-1.036,1.561-1.353c-0.449,0.527-1.042,1.281-1.491,1.808c1.533-0.701,3.161-1.746,4.577-2.67
				c-0.714,0.356-1.572,0.398-2.313,0.113c-0.742-0.285-1.356-0.894-1.658-1.642c-1.143,0.869-2.192,1.865-3.125,2.964
				c0.234-0.277,0.518-0.513,0.831-0.691c-0.587,0.711-1.086,1.499-1.481,2.337c0.41-0.664,0.944-1.248,1.564-1.712
				c-0.296,0.373-0.541,0.788-0.728,1.228c0.407-0.592,0.909-1.117,1.48-1.547C17.354,11.241,17.207,11.508,17.062,11.774"/>
		</g>
	</g>
</g>
<g opacity="0.5">
	<g>
		<g>
			<defs>
				<rect id="SVGID_111_" x="43.193" y="18.798" width="4.856" height="8.75"/>
			</defs>
			<clipPath id="SVGID_112_">
				<use xlink:href="#SVGID_111_"  overflow="visible"/>
			</clipPath>
			<path clip-path="url(#SVGID_112_)" fill="#010101" d="M45.947,20.038c-0.17,0.583-0.406,1.145-0.702,1.673
				c0.021-0.392,0.04-0.782,0.06-1.174c-0.334,1.053-0.668,2.106-1,3.159c0.014-1.681,0.368-3.358,1.035-4.898
				c-0.402,1.017-0.996,1.956-1.306,3.005c-0.179,0.603-0.259,1.231-0.339,1.855c-0.168,1.296-0.334,2.593-0.502,3.89
				c0.238-1,0.641-1.96,1.183-2.829c0.312-0.499,0.679-0.977,1.166-1.297c0.487-0.319,1.114-0.461,1.655-0.256
				c0.029,0.087,0.059,0.174,0.088,0.261c0.309-1.08,0.564-2.175,0.766-3.28c-0.195,0.673-0.492,1.316-0.876,1.9
				c0.079-0.48,0.011-1.235,0.089-1.716c-0.209,0.916-0.479,1.708-1.142,2.364c0.228-1.05,0.401-1.765,0.629-2.814
				c-0.342,0.779-0.719,1.543-1.128,2.288C45.73,21.458,45.839,20.748,45.947,20.038"/>
		</g>
	</g>
</g>
<g opacity="0.5">
	<g>
		<g>
			<defs>
				<rect id="SVGID_113_" x="40.827" y="11.272" width="6.487" height="5.651"/>
			</defs>
			<clipPath id="SVGID_114_">
				<use xlink:href="#SVGID_113_"  overflow="visible"/>
			</clipPath>
			<path clip-path="url(#SVGID_114_)" fill="#010101" d="M47.314,16.356c-0.394-1.208-0.933-2.366-1.602-3.438
				c0.497,0.509,0.932,1.083,1.284,1.706c-0.442-1.193-1.045-2.324-1.786-3.351c-0.527,0.385-1.223,0.41-1.869,0.38
				c-0.846-0.038-1.688-0.145-2.516-0.317c1.906,1.146,3.188,3.097,4.4,4.982c-0.259-0.563-0.518-1.127-0.776-1.691
				c0.317,0.365,0.61,0.752,0.879,1.156c-0.466-1.209-1.101-2.351-1.878-3.378c1.496,1.109,2.629,2.718,3.183,4.52
				c-0.151-0.797-0.409-1.573-0.766-2.299c0.327,0.484,0.598,1.01,0.799,1.563c-0.396-1.231-1.056-2.374-1.917-3.323
				C45.811,13.849,46.686,15.04,47.314,16.356"/>
		</g>
	</g>
</g>
<g opacity="0.5">
	<g>
		<g>
			<defs>
				<rect id="SVGID_115_" x="39.668" y="6.769" width="5.738" height="4.68"/>
			</defs>
			<clipPath id="SVGID_116_">
				<use xlink:href="#SVGID_115_"  overflow="visible"/>
			</clipPath>
			<path clip-path="url(#SVGID_116_)" fill="#010101" d="M44.955,8.633c-0.016,0.661-0.393,1.272-0.883,1.708
				c-0.488,0.437-1.086,0.724-1.676,1.001c0.426,0.01,0.854-0.063,1.252-0.212c0.594-0.223,1.133-0.615,1.758-0.702
				c-0.764,0.669-1.781,0.983-2.784,1.019c-1.003,0.036-1.999-0.191-2.954-0.501c1.586-0.981,2.874-2.457,3.646-4.176
				c0.033,0.792-0.244,1.575-0.666,2.242s-1.295,1.14-1.871,1.675c0.701-0.04,1.656-0.36,2.13-0.89
				c0.474-0.53,0.805-1.174,1.129-1.81c-0.193,1.257-0.953,2.415-2.021,3.079c0.654-0.041,1.271-0.377,1.754-0.832
				C44.253,9.778,44.621,9.211,44.955,8.633"/>
		</g>
	</g>
</g>
<path fill="#010101" d="M41.971,4.147c-0.022-0.168-0.119,0.636-0.127,0.822c-0.048,1.301-0.511,2.726-1.136,3.856
	c-0.586,1.06-1.606,1.775-2.644,2.317c-1.736,0.907-3.681,1.28-5.407,2.187c1.681-1.162,3.487-2.024,5.235-3.076
	c1.692-1.018,2.955-3.006,2.924-5.441c-0.004-0.207-0.403,0.514-0.414,0.685c-0.141,2.146-1.342,3.754-3.146,4.79
	c-1.429,0.82-2.864,1.556-4.237,2.443c0.032-0.04,0.065-0.079,0.1-0.119c1.42-1.232,2.992-2.254,4.381-3.542
	c1.984-1.841,2.393-3.28,2.945-5.225c0.06-0.21-0.063-0.807-0.117-0.616c-0.586,2.062-1.576,4.375-3.473,5.998
	c-0.934,0.798-1.887,1.555-2.869,2.282c1.973-2.631,4.021-5.467,4.328-9.19c0.01-0.104-0.198,0.367-0.23,0.47
	c-1.088,3.442-2.795,6.643-5.029,9.441c-0.134,0.11-0.266,0.224-0.396,0.339c4.63-7.874,4.428-10.329,4.404-10.21
	c-0.769,3.698-3.242,6.832-4.793,10.204c0.358-3.827,2.338-8.006,4.926-10.828c-0.37,0.404-0.92,0.736-1.334,1.114
	c-0.475,0.431-0.913,0.902-1.313,1.406c-0.813,1.026-1.464,2.188-1.905,3.427c0.438-0.972,1.008-1.883,1.688-2.699
	c-0.185,0.723-0.646,1.407-0.937,2.104c-0.309,0.744-0.58,1.504-0.812,2.276c-0.222,0.737-0.41,1.485-0.551,2.243
	c-0.065,0.349-0.12,0.699-0.161,1.051c-0.022,0.193-0.166,0.744-0.074,0.914c-0.055-0.102-0.416-1.884-0.441-2.606
	c-0.04-1.173,0.082-2.345,0.348-3.488c0.449-1.925,3.188-5.613,3.325-5.84c-0.209,0.092-0.176-0.089-0.645,0.028
	c-1.917,0.14-3.066,1.442-4.009,2.745c0.303-1.155,1.192-2.026,1.844-2.441c0.089-0.057-1.312,0.624-1.895,1.345
	c-1.639,2.026-1.68,4.664-0.802,6.936c-0.393-0.595-0.742-1.217-0.98-1.906C27.731,6,28.805,3.402,30.857,2.153
	c0.187-0.113-0.216-0.129-0.308-0.073c-2.022,1.23-3.024,3.536-2.54,5.883c0.227,1.1,0.811,2.044,1.468,2.951
	c-0.02-0.02-0.04-0.04-0.06-0.06c-0.923-0.943-1.726-1.996-2.188-3.254c-1.024-2.785,0.706-5.224,3.153-6.33
	c0.248-0.112-4.416,1.116-3.79,5.537c0.174,1.225,0.867,2.325,1.619,3.264c0.418,0.521,0.894,0.995,1.368,1.463
	c0.199,0.197,0.442,0.398,0.683,0.61c-1.245-0.947-2.59-1.766-3.585-3.01c-1.857-2.322-0.84-4.955,0.792-7.022
	c0.101-0.127-3.396,2.416-1.648,6.427c0.567,1.301,1.768,2.103,2.909,2.915c-0.078-0.036-0.156-0.073-0.234-0.108
	c-0.329-0.169-0.667-0.323-1.01-0.466c-0.509-0.288-1.01-0.589-1.496-0.92C25,9.283,24.026,8.416,23.501,7.305
	c-0.554-1.171-0.485-2.607-0.089-3.787c0.029-0.088-0.17,0.306-0.203,0.405c-0.372,1.108-0.569,1.882-0.271,3.026
	c0.295,1.127,1.243,2.004,2.105,2.699c0.249,0.2,0.507,0.387,0.771,0.564c-0.088-0.041-0.177-0.082-0.264-0.125
	c-1.932-0.957-4.64-2.878-3.507-5.369c-0.058,0.127-0.174,0.381-0.211,0.458c-1.061,2.219,0.823,3.552,2.554,4.603
	c0.173,0.105,0.351,0.204,0.532,0.298c-0.637-0.146-1.278-0.281-1.909-0.458c-1.428-0.401-2.768-2.634-2.362-3.475
	c0.035-0.058-0.308,0.124-0.349,0.249c-1.067,1.487,0.585,2.641,1.73,3.309c0.047,0.027,0.125,0.024,0.2,0.004
	c0.644,0.271,1.37,0.396,2.018,0.533c1.331,0.282,2.656,0.696,3.875,1.303c0.031,0.016,0.062,0.033,0.092,0.049
	c0.176,0.094,0.354,0.188,0.532,0.282c1.071,0.615,2.292,1.233,3.081,2.238c0.008,0.01,5.074-1.875,7.23-3.201
	C41.068,9.672,42.346,6.853,41.971,4.147 M29.936,4.634c-0.039,0.234-0.056,1.819-0.034,1.728c0.626-2.534,2.603-3.596,4.256-4.343
	c-1.355,1.693-2.308,3.298-2.861,5.448c-0.298,1.16-0.373,2.372-0.351,3.564c0.007,0.363,0.019,0.737,0.051,1.11
	C29.422,9.958,28.858,7.096,29.936,4.634"/>
<line fill="none" x1="42.035" y1="1.261" x2="19.954" y2="1.261"/>
<line fill="none" x1="19.954" y1="14.109" x2="42.035" y2="14.109"/>
<path fill="#010101" d="M19.389,7.149c0.064-0.193-0.905,1.396,1.372,2.215C20.942,9.43,18.991,8.337,19.389,7.149"/>
<g opacity="0.5">
	<g>
		<g>
			<defs>
				<rect id="SVGID_117_" x="24.049" y="2.389" width="1.969" height="5.869"/>
			</defs>
			<clipPath id="SVGID_118_">
				<use xlink:href="#SVGID_117_"  overflow="visible"/>
			</clipPath>
			<path clip-path="url(#SVGID_118_)" fill="#010101" d="M25.037,8.258c0.034-0.012-0.838-1.784-0.624-3.249
				c0.076-0.52,0.58-1.861,1.604-2.621c-0.097-0.003-1.633,0.881-1.921,2.227C23.832,5.852,24.744,7.934,25.037,8.258"/>
		</g>
	</g>
</g>
<path fill="#29AAE1" d="M28.035,59.271c1.948-4.549,5.873-12.217,5.955-12.252c0.619-0.271,3.668-0.824,4.375-0.965
	c-0.399-1.457,0.846-5.382,1.309-6.785"/>
<path fill="#29AAE1" d="M39.674,39.27c-2.41,0.551-7.951,1.779-8.188,2.201c-1.15,2.051-3.586,2.689-5.315,1.858
	c-0.699-0.335-1.068-0.979-1.334-1.708c-2.86,0.043-11.279-1.297-10.724-0.113c0.364,0.775,1.271,3.749,1.723,4.479
	c0.896,0.312,3.501,0.687,3.79,1.033c-0.622,3.369-2.64,8.154-3.891,12.01"/>
<g opacity="0.5">
	<g>
		<g>
			<defs>
				<rect id="SVGID_119_" x="37.736" y="39.27" width="1.938" height="6.887"/>
			</defs>
			<clipPath id="SVGID_120_">
				<use xlink:href="#SVGID_119_"  overflow="visible"/>
			</clipPath>
			<path clip-path="url(#SVGID_120_)" fill="#FFFFFF" d="M39.674,39.27c-0.15,0.035-0.316,0.071-0.49,0.111
				c-1.108,1.959-1.396,4.24-1.447,6.689c-0.004,0.178,0.412,0.027,0.63-0.016C37.966,44.598,39.211,40.674,39.674,39.27"/>
		</g>
	</g>
</g>
<g opacity="0.5">
	<g>
		<g>
			<defs>
				<rect id="SVGID_121_" x="23.377" y="40.922" width="9.76" height="3.963"/>
			</defs>
			<clipPath id="SVGID_122_">
				<use xlink:href="#SVGID_121_"  overflow="visible"/>
			</clipPath>
			<path clip-path="url(#SVGID_122_)" fill="#FFFFFF" d="M31.855,42.55c0.458-0.401,1.195-1.437,1.28-1.628
				c-1.115,0.303-1.562,0.393-1.65,0.549c-1.15,2.051-3.586,2.689-5.315,1.858c-0.699-0.335-1.068-0.979-1.334-1.708
				c-0.394,0.006-0.893-0.014-1.459-0.051c0.265,1.173,0.834,2.307,1.94,2.889c1.475,0.773,3.129,0.404,4.503-0.411
				C30.547,43.616,31.219,43.105,31.855,42.55"/>
		</g>
	</g>
</g>
<path fill="#FFFFFF" d="M28.035,59.271c1.776-4.147,5.648-11.867,6.301-13.051c-0.215,0.073-5.362,9.689-6.594,12.356"/>
<polyline fill="none" points="34.336,59.271 34.336,46.221 27.742,46.221 27.742,59.271 "/>
<path fill="#231F20" d="M17.96,58.688c0.817-3.965,1.929-8.088,2.842-12.033c-0.495-0.239-1.937-0.523-1.867-0.732
	c0.334-0.996-0.054-3.498-0.567-3.9c-0.217-0.17,5.948,0.209,6.69,0.129c-0.083-0.17-0.157-0.346-0.224-0.528"/>
<path fill="#231F20" d="M24.836,41.621c-2.86,0.043-11.279-1.297-10.724-0.113c0.364,0.775,1.271,3.749,1.723,4.479
	c0.896,0.312,3.501,0.687,3.79,1.033c-0.755,3.635-2.64,8.154-3.891,12.01"/>
<polyline fill="none" points="25.06,59.029 25.06,41.02 14.086,41.02 14.086,59.029 "/>
<g opacity="0.5">
	<g>
		<g>
			<defs>
				<rect id="SVGID_123_" x="33.564" y="45.135" width="4.801" height="2.663"/>
			</defs>
			<clipPath id="SVGID_124_">
				<use xlink:href="#SVGID_123_"  overflow="visible"/>
			</clipPath>
			<path clip-path="url(#SVGID_124_)" fill="#231F20" d="M38.293,45.135c-1.08,0.182-2.121,0.557-3.186,0.803
				c-0.313,0.072-0.607,0.117-0.801,0.396c-0.283,0.41-0.498,0.881-0.691,1.339c-0.018,0.042-0.033,0.083-0.051,0.125
				c0.254-0.485,0.41-0.771,0.426-0.778c0.619-0.271,3.668-0.824,4.375-0.963C38.299,45.811,38.277,45.495,38.293,45.135"/>
		</g>
	</g>
</g>
<path fill="#FFFFFF" d="M26.583,36.301c-0.202-0.146-0.847-2.611-1.37-3.408c-0.756-1.155-1.556-2.372-2.643-3.382
	c4.742,3.081,9.633,4.581,14.049,4.509c-0.736,0.303-1.396,1.403-1.746,2.393c-0.24,0.678-0.793,1.197-1.479,1.42
	C31.833,38.335,29.317,38.293,26.583,36.301"/>
<path fill="#C3785C" d="M23.776,30.311c4.745,2.666,8.401,3.828,12.603,3.708c0.186-0.006-2.795-0.314-5.854-1.225
	C27.268,31.827,23.632,30.23,23.776,30.311"/>
<path fill="#C3785C" d="M34.755,37.16c-0.974,0.438-2.655,0.705-3.545,0.664c-1.034-0.047-3.801-1.104-4.877-1.553
	c-0.192-0.08,3.492,2.362,4.512,2.297C32.947,38.43,34.953,37.072,34.755,37.16"/>
<g opacity="0.3">
	<g>
		<g>
			<defs>
				<rect id="SVGID_125_" x="25.558" y="33.544" width="5.885" height="2.302"/>
			</defs>
			<clipPath id="SVGID_126_">
				<use xlink:href="#SVGID_125_"  overflow="visible"/>
			</clipPath>
			<path clip-path="url(#SVGID_126_)" fill="#221F1F" d="M25.56,33.545c-0.022-0.02,0.182,0.688,0.189,0.711
				c1.947,0.813,3.806,1.51,5.691,1.59C31.551,35.852,27.719,35.273,25.56,33.545"/>
		</g>
	</g>
</g>
<g opacity="0.3">
	<g>
		<g>
			<defs>
				<rect id="SVGID_127_" x="33.238" y="35.49" width="2.035" height="0.582"/>
			</defs>
			<clipPath id="SVGID_128_">
				<use xlink:href="#SVGID_127_"  overflow="visible"/>
			</clipPath>
			<path clip-path="url(#SVGID_128_)" fill="#221F1F" d="M35.273,35.49c-0.222,0.227-2.266,0.601-2.014,0.582
				c0.52-0.04,1.389-0.125,1.877-0.271C35.158,35.746,35.253,35.539,35.273,35.49"/>
		</g>
	</g>
</g>
<g opacity="0.4">
	<g>
		<g>
			<defs>
				<rect id="SVGID_129_" x="36.107" y="33.547" width="1.434" height="0.752"/>
			</defs>
			<clipPath id="SVGID_130_">
				<use xlink:href="#SVGID_129_"  overflow="visible"/>
			</clipPath>
			<path clip-path="url(#SVGID_130_)" fill="#CC7B3C" d="M37.532,34.27c-0.825-1.213-1.646-0.533-1.37-0.528
				C36.518,33.746,37.65,34.445,37.532,34.27"/>
		</g>
	</g>
</g>
<g opacity="0.4">
	<g>
		<g>
			<defs>
				<rect id="SVGID_131_" x="21.543" y="28.985" width="1.83" height="0.542"/>
			</defs>
			<clipPath id="SVGID_132_">
				<use xlink:href="#SVGID_131_"  overflow="visible"/>
			</clipPath>
			<path clip-path="url(#SVGID_132_)" fill="#CC7B3C" d="M21.555,29.488c1.086-1.114,2.09-0.016,1.752-0.11
				C22.862,29.253,21.396,29.65,21.555,29.488"/>
		</g>
	</g>
</g>
<path fill="none" d="M67.372,33.201c0-18.967-19.411-34.342-43.355-34.342"/>
<path fill="none" d="M3.597,24.48c0,18.967,12.367,27.064,21.264,30.188"/>
<path fill="#F0B886" d="M17.144,42.527c0.097-0.264-0.075-0.979-0.308-1.141c-0.55-0.166-1.22-0.145-1.333-0.1
	c0.002-0.363-0.092-0.917-0.417-1.268c-0.412-0.442-1.075-0.427-1.383-0.232c-0.75-1.819-1.3-2.075-3.166-1.45
	c0.271,0.606,0.664,1.411,0.524,1.685c-0.233,0.453-0.431,1.188-0.562,1.682c-0.097,0.363-0.163,0.757-0.029,1.107
	c0.134,0.353,0.535,0.625,0.889,0.496c-0.105,0.639-0.304,1.735,0.044,2.28c0.29,0.453,1.124,0.213,1.497-0.094
	c-0.274,0.45-0.622,1.653-0.297,2.062c0.533,0.666,1.464,0.021,1.785-0.508c-0.087,0.311-0.176,0.63-0.132,0.949
	c0.044,0.318,0.258,0.638,0.574,0.697c0.382,0.074,0.721-0.231,0.989-0.514c1.026-1.076,2.103-2.256,2.313-3.729
	C18.245,43.662,17.93,42.67,17.144,42.527"/>
<g opacity="0.4">
	<g>
		<g>
			<defs>
				<rect id="SVGID_133_" x="10.395" y="38.029" width="7.76" height="10.678"/>
			</defs>
			<clipPath id="SVGID_134_">
				<use xlink:href="#SVGID_133_"  overflow="visible"/>
			</clipPath>
			<path clip-path="url(#SVGID_134_)" fill="#CC7B3C" d="M17.144,42.527c0.097-0.264-0.075-0.98-0.308-1.141
				c-0.55-0.166-1.22-0.144-1.333-0.1c0.002-0.363-0.025-0.784-0.417-1.268c-0.325-0.399-1.075-0.427-1.383-0.232
				c-0.75-1.819-1.3-2.075-3.166-1.45c0.271,0.606,0.524,1.278,0.5,1.584c-0.001,0.013-0.411,1.308-0.537,1.781
				c-0.097,0.362-0.163,0.757-0.029,1.108c0.134,0.352,0.535,0.625,0.889,0.494c-0.105,0.639-0.304,1.736,0.044,2.281
				c0.29,0.453,1.124,0.213,1.498-0.094c-0.274,0.449-0.622,1.654-0.297,2.061c0.533,0.666,1.464,0.022,1.785-0.507
				c-0.087,0.31-0.176,0.63-0.132,0.949s0.258,0.638,0.574,0.698c0.382,0.074,0.721-0.232,0.989-0.514
				c1.026-1.078,2.103-2.257,2.313-3.729C18.245,43.662,17.93,42.67,17.144,42.527 M11.361,43.172
				c-0.381,0.186-0.683-0.695-0.607-1.084c0.133-0.676,0.85-2.168,0.682-2.592c-0.575-1.449,0.565-1.564,1.25-1.1
				c0.879,0.596,0.804,1.369,0.4,2.199C12.949,40.969,11.609,43.257,11.361,43.172 M13.669,47.521
				c-0.253,0.096-0.801-0.123-0.866-0.367c-0.24-0.906,0.2-1.863,0.643-2.641c-0.141,0.211-0.354,0.553-0.51,0.739
				c-0.351,0.425-0.733,0.634-1.375,0.144c-0.416-0.319-0.201-1.416,0.075-1.826c0.668-0.991,1.75-3.523,2.475-3.699
				c0.632-0.221,1.283,0.62,1.125,1.25c-0.1,0.4-0.823,1.428-0.997,1.787c-0.185,0.385-0.356,0.832-0.576,1.242
				c0.393-0.635,1.292-1.998,1.341-2.082c0.406-0.689,1.534-0.93,1.881-0.098C17.27,42.889,15.07,46.986,13.669,47.521
				 M17.803,45.32c-0.667,1.468-1.67,2.459-2.442,3.051c-0.27,0.207-0.808-0.092-0.858-0.717c-0.061-0.758,2.566-4.834,2.887-4.537
				C18.157,43.828,18.159,44.537,17.803,45.32"/>
		</g>
	</g>
</g>
<path fill="#FFFFFF" d="M40.779,24.53c-0.489-2.434-1.637-2.241-3.594-2.026c-0.476,0.052-1.248,0.45-1.642,0.874
	c-0.367,0.396-0.887,1.274-0.926,1.881c-0.063,1.001,4.817,0.731,5.021,0.399C39.641,25.655,40.877,25.014,40.779,24.53"/>
<path fill="#272660" d="M38.754,23.58l0.047,0.005c0.15,0.015,0.29,0.07,0.415,0.15c0.147-0.204,0.157-0.787,0.126-0.876
	c-0.893-0.532-2.104-0.515-3.148-0.103c-0.198,0.079-0.383,0.178-0.555,0.29c-0.16,0.315-0.303,0.68-0.265,1.079
	c0.255,2.666,3.382,2.073,3.7,1.286c-0.1,0.028-0.206,0.041-0.316,0.03l-0.047-0.005c-0.502-0.05-0.91-0.514-0.898-1.021
	C37.824,23.91,38.253,23.53,38.754,23.58"/>
<path fill="#3B2518" d="M40.904,24.913c-0.172-0.859-0.217-2.603-2.15-2.676c-2.025-0.077-3.059,0.108-4.221,2.545
	c-0.049,0.103,0.849-1.269,1.313-1.557c1.494-0.925,3.008-0.938,3.863-0.339C40.702,23.581,40.919,24.983,40.904,24.913"/>
<path fill="#FFFFFF" d="M29.565,24.105c0.091-1.036-1.417-2.919-3.761-3.175c-0.57-0.063-1.326-0.256-1.878,0.084
	c-0.516,0.317-1.545,1.067-1.72,1.681C21.917,23.709,29.388,26.113,29.565,24.105"/>
<path fill="#272660" d="M27.895,22.323l0.051,0.015c0.166,0.05,0.311,0.141,0.432,0.254c-0.003-0.178-0.005-0.531-0.018-0.633
	c-0.879-0.77-1.875-1.297-3.154-1.089c-0.243,0.04-0.474,0.104-0.695,0.186c-0.254,0.302-0.503,0.661-0.557,1.097
	c-0.355,2.912,3.313,2.975,3.861,2.204c-0.12,0.007-0.243-0.002-0.365-0.039l-0.051-0.015c-0.553-0.166-0.902-0.755-0.767-1.294
	C26.767,22.47,27.341,22.157,27.895,22.323"/>
<path fill="#3B2518" d="M22.15,22.683c0.42-0.836,1.472-2.486,3.763-2.089c0.219,0.038,3.21,0.306,3.773,3.443
	c0.021,0.119-0.679-1.492-1.153-1.894c-1.47-1.246-3.047-1.46-4.188-1.091C22.931,21.511,22.115,22.753,22.15,22.683"/>
</svg>
