<?xml version="1.0" encoding="utf-8"?>
<!-- Generator: Adobe Illustrator 16.0.0, SVG Export Plug-In . SVG Version: 6.00 Build 0)  -->
<!DOCTYPE svg PUBLIC "-//W3C//DTD SVG 1.1//EN" "http://www.w3.org/Graphics/SVG/1.1/DTD/svg11.dtd">
<svg version="1.1"
	 id="svg2" xmlns:sodipodi="http://sodipodi.sourceforge.net/DTD/sodipodi-0.dtd" xmlns:svg="http://www.w3.org/2000/svg" xmlns:inkscape="http://www.inkscape.org/namespaces/inkscape" xmlns:dc="http://purl.org/dc/elements/1.1/" xmlns:cc="http://creativecommons.org/ns#" xmlns:rdf="http://www.w3.org/1999/02/22-rdf-syntax-ns#" sodipodi:version="0.32" inkscape:version="0.46" inkscape:output_extension="org.inkscape.output.svg.inkscape" sodipodi:docname="the-alternate-alternate.svg"
	 xmlns="http://www.w3.org/2000/svg" xmlns:xlink="http://www.w3.org/1999/xlink" x="0px" y="0px" width="128px" height="128px"
	 viewBox="0 0 128 128" enable-background="new 0 0 128 128" xml:space="preserve">
<sodipodi:namedview  inkscape:pageopacity="0.0" inkscape:cy="-35.060779" showgrid="false" objecttolerance="10" bordercolor="#666666" inkscape:cx="334.89331" borderopacity="1.0" guidetolerance="10" pagecolor="#ffffff" inkscape:zoom="1" gridtolerance="10000" id="base" inkscape:document-units="px" inkscape:current-layer="layer1" inkscape:pageshadow="2" inkscape:window-height="961" inkscape:window-width="1538" inkscape:window-x="127" inkscape:window-y="31">
	</sodipodi:namedview>
<g>
	<title>Layer 1</title>
	
		<linearGradient id="imagebot_2_1_" gradientUnits="userSpaceOnUse" x1="34.2251" y1="94.8477" x2="34.9649" y2="94.1078" gradientTransform="matrix(148.82 0 0 -190.6711 -5075.1504 18070.3906)">
		<stop  offset="0" style="stop-color:#E72F2A"/>
		<stop  offset="1" style="stop-color:#6C0B1C"/>
	</linearGradient>
	<path id="imagebot_2" fill="url(#imagebot_2_1_)" stroke="#000000" stroke-width="2" stroke-miterlimit="10" d="M51.226,123.427
		c0,0,5.247,0.274,7.058-3.719c1.81-3.993,1.629-10.053,1.629-10.053s5.79-9.091,12.126-12.671c6.334-3.58,16.65-7.712,16.65-7.712
		s2.171-1.378,3.257-3.307c1.087-1.927,5.972-12.807,5.972-12.807s3.621-6.748,9.23-11.293c5.61-4.543,8.325-5.509,11.4-6.196
		c3.077-0.688,4.164-1.378,4.164-1.378l-5.791-47.099c0,0-12.668,4.819-17.375,4.131c-4.704-0.688-12.125-0.688-17.736-2.892
		c-5.61-2.204-34.926-3.028-50.31,1.653c-15.382,4.68-19.002,2.065-22.441,8.538c-3.438,6.473,5.431,6.749,5.973,9.089
		c0.542,2.341-9.049,2.065-10.316,7.299c-0.426,1.761,2.769,5.894,8.143,8.814c2.534,1.377-10.676-0.414-9.41,8.951
		c0.591,4.377,2.172,5.371,7.601,6.472c5.428,1.102-8.869,2.754-8.145,9.366c0.492,4.495,8.494,8.988,20.994,9.639
		c13.21,0.688,20.088,0.551,20.088,0.551l13.754,0.688c0,0-9.23,11.431-12.667,15.563c-3.438,4.13-7.781,13.357-7.419,15.285
		c0.358,1.936,0.901,14.19,13.57,13.089L51.226,123.427z"/>
</g>
</svg>
