<?xml version="1.0" encoding="utf-8"?>
<!-- Generator: Adobe Illustrator 16.0.0, SVG Export Plug-In . SVG Version: 6.00 Build 0)  -->
<!DOCTYPE svg PUBLIC "-//W3C//DTD SVG 1.1//EN" "http://www.w3.org/Graphics/SVG/1.1/DTD/svg11.dtd">
<svg version="1.1"
	 id="svg2" xmlns:dc="http://purl.org/dc/elements/1.1/" xmlns:cc="http://creativecommons.org/ns#" xmlns:rdf="http://www.w3.org/1999/02/22-rdf-syntax-ns#" xmlns:svg="http://www.w3.org/2000/svg" xmlns:sodipodi="http://sodipodi.sourceforge.net/DTD/sodipodi-0.dtd" xmlns:inkscape="http://www.inkscape.org/namespaces/inkscape" inkscape:output_extension="org.inkscape.output.svg.inkscape" sodipodi:docname="the-alternate-alternate.svg" inkscape:version="0.46" sodipodi:version="0.32"
	 xmlns="http://www.w3.org/2000/svg" xmlns:xlink="http://www.w3.org/1999/xlink" x="0px" y="0px" width="128px" height="128px"
	 viewBox="0 0 128 128" enable-background="new 0 0 128 128" xml:space="preserve">
<filter  height="2.0379941" width="1.247733" id="filter3457" y="-0.51899701" x="-0.12386652" inkscape:collect="always">
	<feGaussianBlur  stdDeviation="3.5216725" id="feGaussianBlur3459" inkscape:collect="always"></feGaussianBlur>
</filter>
<sodipodi:namedview  showgrid="false" inkscape:cy="-35.060779" inkscape:cx="334.89331" inkscape:zoom="1" objecttolerance="10" guidetolerance="10" gridtolerance="10000" borderopacity="1.0" bordercolor="#666666" pagecolor="#ffffff" id="base" inkscape:window-y="31" inkscape:window-x="127" inkscape:window-height="961" inkscape:window-width="1538" inkscape:current-layer="layer1" inkscape:document-units="px" inkscape:pageshadow="2" inkscape:pageopacity="0.0">
	</sodipodi:namedview>
<g id="layer1" inkscape:label="Layer 1" inkscape:groupmode="layer">
	<g id="g3461" transform="translate(-225.48868,-43.270493)">
		<g id="path3353" sodipodi:nodetypes="ccccccc" filter="url(#filter3457)">
			<path opacity="0.6996" d="M282.371,168.985c-6.715-1.841-22.408,1.724-27-4.5c2.001-9.999,26.454-8.545,34-8
				c9.531-1.555,17.961-1.011,27.5-1.5c3.058,0,4.658,3.579,6.5,4.5c2.047,1.614-9.868,10.538-13.5,11
				C303.479,172.473,289.282,170.205,282.371,168.985z"/>
		</g>
		<path id="path3341" sodipodi:nodetypes="ccccccccccc" fill="#F4E3D7" stroke="#432612" d="M268.75,129.235
			c-1.718,0-2.333,2.833-4,3.25c-2.623,0.26-6.295,0.642-4.5,4c1.13,1.13,3.104-1.665,2.5,0.75c-1.837,1.854-4.434,2.72-1.5,5
			c1.107,0.554,1.797-0.649,2.5-1c-2.203,1.624-2.657,2.82,1,3.25c1.633,1.464,2.087,1.911,4.75,0.75
			c1.659-1.587,2.233-4.019,2.5-6.25c-0.294-2.438,1.238-4.331,1.75-6.5C273.361,130.368,270.615,129.953,268.75,129.235z"/>
		<path id="path3333" sodipodi:nodetypes="cccccc" fill="#2B1100" stroke="#120700" d="M277.75,112.985
			c-1.437,2.737-3.377,4.631-5.75,6.5c-1.67,3.516-3.083,6.927-5,10.25c2.917,0.618,3.439,4.621,7.375,5.25
			c1.509-2.247,2.583-4.747,4.125-7c1.945-2.066,3.398-4.288,4.75-6.75"/>
		<path id="path3319" sodipodi:nodetypes="ccccccc" fill="#5D6DD6" stroke="#162167" d="M279.75,160.188
			c-1.107,0-2.878-0.446-4.016-1.016c-2.11-1.987-3.418-0.527-5.769,0.348c-1.401,0.351-1.334,1.896-1.334,3.113
			c4.919,4.524,14.897,2.517,21.126,0.445c0.114-2.124,0.079-4.33-0.222-6.449C285.907,156.337,283.145,159.255,279.75,160.188z"/>
		<path id="path3321" sodipodi:nodetypes="ccccccc" fill="#E6E6E6" stroke="#4D4D4D" d="M268.409,163.301
			c-1.11,0.443-0.155,1.648-0.445,2.808c2.754,1.103,6.465,0.417,9.632,0.417c3.771-0.598,7.631-1.107,11.494-0.904
			c1.01,0,0.667-2.102,0.667-2.891c-3.924-0.871-7.669,1.143-11.563,1.459C274.766,164.689,271.688,164.303,268.409,163.301z"/>
		<path id="path2545" sodipodi:nodetypes="ccccccccc" fill="#364936" stroke="#141B14" d="M282.41,136.837
			c-0.914,0.457,0.847,5.081,1.573,6.29c0.958,3.466-0.269,6.861-2.202,9.749c0.049,2.622-1.208,5.075-1.561,7.544
			c5.006-0.602,9.298-4.211,15.713-4.399c1.73,0,0.87-2.878,0.629-4.089c-1.27-5.193-0.928-10.447-1.259-15.724
			c0-1.894-2.29-1.24-3.773-0.943C288.362,135.869,285.125,134.838,282.41,136.837z"/>
		<path id="path2543" sodipodi:nodetypes="ccccccccc" fill="#364936" stroke="#141B14" d="M290.272,144.07
			c1.49,4.705-1.062,5.764-1.072,10.519c0,1.981-1.078,4.948-1.443,6.778c4.214-2.266,14.384-0.651,19.982-0.641
			c-0.838-4.06-3.059-5.406-3.629-7.851c-1.811-3.186-1.459-6.261-1.258-9.749c0-1.572,0-3.145,0-4.718
			c-0.41-4.579-9.465-2.685-12.894-1.887C290.144,138.758,289.857,141.591,290.272,144.07z"/>
		<path id="path2541" sodipodi:nodetypes="cccccccccccc" fill="#2B1100" stroke="#120700" d="M303.25,106.485
			c0.471,2.529,1.611,4.795,3.25,6.75c2.547,2.738,0.8,5.989,1,9.5c2.011,6.169-1.172,12.287-0.25,18.5
			c-3.299,0.277-6.769-0.176-10.875-0.125c-8.347-0.431-8.119-2.798-16.375-0.25c-2.105-6.896-1.288-6.716-1.125-10.625
			c0.337-3.358,0.405-7.918-0.125-11.25c-0.689-3.349-2.278-6.644,0.25-9.25c1.196-1.873,2.631-2.773,4.75-3.25
			c3.785-1,7.787-1.088,11.5-2.25C298.437,103.187,300.68,105.075,303.25,106.485z"/>
		<path id="path2539" sodipodi:nodetypes="cccscccc" fill="#2B1100" stroke="#120700" d="M285.5,101.735
			c2.867,0.082,5.686,0.069,8.5-0.5c2.309-0.319,4.019,0.042,6.25-1c1.635-0.409,2.032,0.565,2.5,1.5
			c0.603,1.206-0.125,2.985-0.125,4.375c-4.313,2.964-9.813,0.857-14.625,1.375c-2.52,0.541-5.548,2.565-5.75-1
			C282.056,103.14,282.01,102.132,285.5,101.735z"/>
		<path id="path2519" sodipodi:nodetypes="cccccccccc" fill="#F4E3D7" stroke="#432612" d="M285.643,69.184
			c-3.545,2.438-7.516,4.978-9.254,9.064c-1.819,4.636-0.474,9.781,1.133,14.353c0.979,3.897,0.72,8.077,0.755,12.086
			c0,1.366,0.196,1.563,1.133,2.266c3.608,1.871,8.332-1.086,11.332-3.21c3.803-3.039,8.512-3.22,12.652-5.854
			c3.581-2.751,3.795-7.232,4.533-11.331c1.267-4.91-0.378-8.979-3.588-12.653C299.496,69.897,291.873,66.469,285.643,69.184z"/>
		<path id="path2509" sodipodi:nodetypes="ccccccccccc" stroke="#000000" d="M294.519,63.14c-6.359-2.881-9.528-6.332-16.483-5.167
			c-6.903,2.084-14.604,13.183-13.91,19.978c1.237-8.734,6.491-13.608,14.554-13.404c-6.058,2.713-6.942,6.132-8.976,9.354
			c3.27-3.415,6.352-4.228,10.126-4.339c1.651,0,0.224,3.274-0.466,4.588c2.326-3.245,7.583-2.854,8.325,1.286
			c2.787-4.298,8.358-4.15,12.875-3.985c2.028-1.591,2.691-2.563,2.691-5.119C303.614,61.315,298.563,62.599,294.519,63.14z"/>
		<path id="path2513" sodipodi:nodetypes="cccscccc" stroke="#000000" d="M280.355,102.609c4.952-0.443,3.177,4.157,2.644,7.554
			c-1.039,3.862,0.306,7.251,0.755,10.953c0.062-1.751-2.271-2.286-2.644-3.776c-1.002-4.008-1.73-3.514-2.397-5.014
			c-0.648,2.414-0.817,3.395-1.883,5.889c-4.419-7.086,1.527-6.957,2.014-10.317C278.844,105.422,278.65,104.74,280.355,102.609z"/>
		<path id="path2511" sodipodi:nodetypes="ccccccscccc" stroke="#000000" d="M302.34,69.434c4.623-8.521,12.89-3.713,17.502-2.917
			c-2.32,1.138-7.656-0.799-9.049,1.953c3.438,0.216,7.898,0.722,9.41,5.239c-2.19-3.165-8.59-3.597-13.075-2.009
			c0.883,3.324,4.185,3.226,6.734,5.609c-4.243-0.954-6.313,2.352-5.746,0.94c0.271-0.674,3.911,4.088,3.175,6.629
			c-3.422-2.287-4.293-3.995-8.085-3.985c-1.203,2.211-2.93,0.931-6.044,8.309C298.127,81.09,296.405,74.602,302.34,69.434z"/>
		<path id="path2523" sodipodi:nodetypes="ccccc" fill="#F4E3D7" stroke="#432612" d="M304.34,82.403
			c1.813-1.917,3.59-2.03,5.665-0.567c1.425,1.416,2.206,2.987,2.644,4.91c0.359,2.929-1.799,3.327-4.154,3.966
			c-2.063,0.406-3.771,0.037-4.344-2.455"/>
		<path id="path2527" sodipodi:nodetypes="ccccc" fill="#FFFFFF" stroke="#333333" d="M277.37,80.844
			c-0.493,1.055-0.85,1.615-0.853,3.761c-0.118,3.002,2.477,5.121,4.594,2.519c0.61-1.797,0.377-2.898,0.377-4.782
			C281.07,80.236,279.168,80.187,277.37,80.844z"/>
		<path id="path2529" sodipodi:nodetypes="ccccc" fill="#FFFFFF" stroke="#333333" d="M288.341,80.325
			c-2.007,0.187-3.364,2.044-3.818,3.966c-0.292,1.784,0.135,3.098,1.796,4.155c4.7-0.417,4.601-3.407,4.267-5.288
			C290.54,81.479,290.262,80.561,288.341,80.325z"/>
		<path id="path2531" sodipodi:nodetypes="ccc" stroke="#000000" d="M285.265,87.124c0.717,1.46,2.764,1.344,3.588-0.567
			C287.077,84.015,285.946,84.541,285.265,87.124z"/>
		<path id="path2533" sodipodi:nodetypes="ccc" stroke="#000000" d="M280.852,85.993c-0.108-1.352-3.667-0.656-3.896,0.187
			C276.848,87.992,280.753,89.425,280.852,85.993z"/>
		<path id="path2535" sodipodi:nodetypes="cscc" fill="none" stroke="#432612" d="M282.619,88.512
			c-0.213,1.219-1.402,2.478-2.831,2.011c-1.465-0.479-1.539,1.126-1.255,2.261c0.463,1.618,3.475,0.194,3.899,0.194"/>
		<path id="path2537" sodipodi:nodetypes="cc" fill="none" stroke="#432612" d="M279.788,98.455
			c1.203-0.717,4.525-0.607,6.799,1.133"/>
		<path id="path3325" sodipodi:nodetypes="cccccc" fill="#5D6DD6" stroke="#162167" d="M287.978,165.302
			c3.712-1.751,7.647,0.062,11.563-0.444c2.313-0.319,4.584-0.664,6.922-0.668c2.006-2.711-0.807-5.102-3.142-6.004
			c-4.047-0.877-7.466-1.702-11.341,0.223C289.677,160.144,287.341,162.268,287.978,165.302z"/>
		<path id="path3327" sodipodi:nodetypes="ccccccc" fill="#E6E6E6" stroke="#4D4D4D" d="M287.88,164.454
			c-0.466,0.466,0.071,2.116,0.32,2.613c3.354,0.099,6.745,0.608,10.007-0.209c2.741-0.021,5.863-0.242,8.615-0.375
			c0.186-0.428,0.289-1.572-0.109-2.613c-2.994,0.259-6.436,0.194-9.396-0.348C294.34,163.632,290.686,163.333,287.88,164.454z"/>
		<path id="path3337" sodipodi:nodetypes="ccccsccsccc" fill="#F4E3D7" stroke="#432612" d="M304,130.985
			c0.328,0.66,0.5,2.541,0.5,4c0.156,2.829-2.84,2.755-4,4.75c-0.117,3.149,3.002,1.899,4.5,0.5c1.183-1.183,1.636-0.614,2.5,0.25
			c0.758,0.758,0.522,2.546,1,3.5c2.519,2.518,2.299-3.302,4.25-1.5c0.586,0.586,1.887-2.513,2-2.625c1.213-1.213,2-0.407,2-2.125
			c-1.426-2.345-2.543-4.669-4.375-6.75C310.774,126.151,305.596,124.602,304,130.985z"/>
		<path id="path3331" sodipodi:nodetypes="cccccccc" fill="#2B1100" stroke="#120700" d="M294.5,111.235
			c1.193,2.132,2.477,4.073,4.25,5.75c0.504,2.372,0.025,4.516,1.25,6.75c-0.173,3.57,1.799,6.39,2.75,9.75
			c3.439-3.398,7.79,0.485,10.625-3.875c-1.131-1.995-2.539-4.323-3.875-6.375c-1.716-1.886-2.457-4.071-3-6.5
			c-1.477-2.412-2.952-4.829-4.5-7.25"/>
		<path id="path3343" sodipodi:nodetypes="cccc" fill="#F4E3D7" stroke="#432612" d="M262.75,137.235c2.483,0.57,1.719,0.988,1,4
			c2.704-1.757,3.944-0.784,2.625,2.875c-1.308,0.739,4.02-2.85,3.75,0.5"/>
		<path id="path3345" sodipodi:nodetypes="cc" fill="#F4E3D7" stroke="#432612" d="M307.591,83.041
			c3.94-0.88,3.071,5.955-1.061,4.596"/>
		<path id="path3347" sodipodi:nodetypes="cc" fill="none" stroke="#000000" d="M310.95,84.632c2.328-3.61,5.143,1.751,1.799,2.143"
			/>
		<path id="path3349" sodipodi:nodetypes="cc" fill="none" stroke="#000000" d="M310.774,87.637c4.783-0.082,3.96,5.571,0.176,2.652
			"/>
		<path id="path3351" sodipodi:nodetypes="cc" fill="none" stroke="#000000" d="M308.299,88.874
			c3.309,3.146,0.078,6.478-0.885,2.122"/>
	</g>
</g>
<text transform="matrix(0.9603 -0.279 0.279 0.9603 12.835 42.8267)" font-family="'ComicSansMS-Bold'" font-size="48">?</text>
<text transform="matrix(1.0197 0.1556 -0.1508 0.9886 97.1172 30.0693)" font-family="'ComicSansMS-Bold'" font-size="34.8252">?</text>
<text transform="matrix(0.8455 -0.5909 0.5728 0.8197 27.3027 81.2988)" font-family="'ComicSansMS-Bold'" font-size="34.8252">?</text>
<text transform="matrix(0.6621 -0.3726 0.4904 0.8715 36.6528 20.1895)" font-family="'ComicSansMS-Bold'" font-size="22.4426">?</text>
<text transform="matrix(0.7449 -0.1493 0.1966 0.9805 88.7969 70.9844)" font-family="'ComicSansMS-Bold'" font-size="22.4426">?</text>
<text transform="matrix(0.7998 0.1858 -0.2263 0.9741 82.25 16.0107)" font-family="'ComicSansMS-Bold'" font-size="15.49">?</text>
<text transform="matrix(1.049 -0.5282 0.4497 0.8932 61.5703 14.4707)" font-family="'ComicSansMS-Bold'" font-size="13.9229">?</text>
</svg>
